<?xml version="1.0" encoding="utf-8" standalone="no"?>
<!DOCTYPE svg PUBLIC "-//W3C//DTD SVG 1.1//EN"
  "http://www.w3.org/Graphics/SVG/1.1/DTD/svg11.dtd">
<svg xmlns:xlink="http://www.w3.org/1999/xlink" width="260.991953pt" height="133.444634pt" viewBox="0 0 260.991953 133.444634" xmlns="http://www.w3.org/2000/svg" version="1.1">
 <metadata>
  <rdf:RDF xmlns:dc="http://purl.org/dc/elements/1.1/" xmlns:cc="http://creativecommons.org/ns#" xmlns:rdf="http://www.w3.org/1999/02/22-rdf-syntax-ns#">
   <cc:Work>
    <dc:type rdf:resource="http://purl.org/dc/dcmitype/StillImage"/>
    <dc:date>2026-09-21T21:35:05.919244</dc:date>
    <dc:format>image/svg+xml</dc:format>
    <dc:creator>
     <cc:Agent>
      <dc:title>Matplotlib v3.10.8, https://matplotlib.org/</dc:title>
     </cc:Agent>
    </dc:creator>
   </cc:Work>
  </rdf:RDF>
 </metadata>
 <defs>
  <style type="text/css">*{stroke-linejoin: round; stroke-linecap: butt}</style>
 </defs>
 <g id="figure_1">
  <g id="patch_1">
   <path d="M -0 133.444634 
L 260.991953 133.444634 
L 260.991953 0 
L -0 0 
z
" style="fill: #ffffff"/>
  </g>
  <g id="axes_1">
   <g id="patch_2">
    <path d="M 98.439654 74.533914 
L 210.295737 74.533914 
L 210.295737 3.358538 
L 98.439654 3.358538 
z
" style="fill: #ffffff"/>
   </g>
   <g id="matplotlib.axis_1">
    <g id="xtick_1">
     <g id="line2d_1">
      <path d="M 109.074886 74.533914 
L 109.074886 3.358538 
" clip-path="url(#p7fcdb683a3)" style="fill: none; stroke: #cccccc; stroke-opacity: 0.25; stroke-width: 0.5; stroke-linecap: round"/>
     </g>
     <g id="line2d_2">
      <defs>
       <path id="m8fe5fd8910" d="M 0 0 
L 0 4.8 
" style="stroke: #262626"/>
      </defs>
      <g>
       <use xlink:href="#m8fe5fd8910" x="109.074886" y="74.533914" style="fill: #262626; stroke: #262626"/>
      </g>
     </g>
     <g id="text_1">
      <!-- 5 -->
      <g style="fill: #262626" transform="translate(106.211761 89.672508) scale(0.09 -0.09)">
       <defs>
        <path id="DejaVuSans-35" d="M 691 4666 
L 3169 4666 
L 3169 4134 
L 1269 4134 
L 1269 2991 
Q 1406 3038 1543 3061 
Q 1681 3084 1819 3084 
Q 2600 3084 3056 2656 
Q 3513 2228 3513 1497 
Q 3513 744 3044 326 
Q 2575 -91 1722 -91 
Q 1428 -91 1123 -41 
Q 819 9 494 109 
L 494 744 
Q 775 591 1075 516 
Q 1375 441 1709 441 
Q 2250 441 2565 725 
Q 2881 1009 2881 1497 
Q 2881 1984 2565 2268 
Q 2250 2553 1709 2553 
Q 1456 2553 1204 2497 
Q 953 2441 691 2322 
L 691 4666 
z
" transform="scale(0.015625)"/>
       </defs>
       <use xlink:href="#DejaVuSans-35"/>
      </g>
     </g>
    </g>
    <g id="xtick_2">
     <g id="line2d_3">
      <path d="M 148.731044 74.533914 
L 148.731044 3.358538 
" clip-path="url(#p7fcdb683a3)" style="fill: none; stroke: #cccccc; stroke-opacity: 0.25; stroke-width: 0.5; stroke-linecap: round"/>
     </g>
     <g id="line2d_4">
      <g>
       <use xlink:href="#m8fe5fd8910" x="148.731044" y="74.533914" style="fill: #262626; stroke: #262626"/>
      </g>
     </g>
     <g id="text_2">
      <!-- 10 -->
      <g style="fill: #262626" transform="translate(143.004794 89.672508) scale(0.09 -0.09)">
       <defs>
        <path id="DejaVuSans-31" d="M 794 531 
L 1825 531 
L 1825 4091 
L 703 3866 
L 703 4441 
L 1819 4666 
L 2450 4666 
L 2450 531 
L 3481 531 
L 3481 0 
L 794 0 
L 794 531 
z
" transform="scale(0.015625)"/>
        <path id="DejaVuSans-30" d="M 2034 4250 
Q 1547 4250 1301 3770 
Q 1056 3291 1056 2328 
Q 1056 1369 1301 889 
Q 1547 409 2034 409 
Q 2525 409 2770 889 
Q 3016 1369 3016 2328 
Q 3016 3291 2770 3770 
Q 2525 4250 2034 4250 
z
M 2034 4750 
Q 2819 4750 3233 4129 
Q 3647 3509 3647 2328 
Q 3647 1150 3233 529 
Q 2819 -91 2034 -91 
Q 1250 -91 836 529 
Q 422 1150 422 2328 
Q 422 3509 836 4129 
Q 1250 4750 2034 4750 
z
" transform="scale(0.015625)"/>
       </defs>
       <use xlink:href="#DejaVuSans-31"/>
       <use xlink:href="#DejaVuSans-30" transform="translate(63.623047 0)"/>
      </g>
     </g>
    </g>
    <g id="xtick_3">
     <g id="line2d_5">
      <path d="M 188.387201 74.533914 
L 188.387201 3.358538 
" clip-path="url(#p7fcdb683a3)" style="fill: none; stroke: #cccccc; stroke-opacity: 0.25; stroke-width: 0.5; stroke-linecap: round"/>
     </g>
     <g id="line2d_6">
      <g>
       <use xlink:href="#m8fe5fd8910" x="188.387201" y="74.533914" style="fill: #262626; stroke: #262626"/>
      </g>
     </g>
     <g id="text_3">
      <!-- 20 -->
      <g style="fill: #262626" transform="translate(182.660951 89.672508) scale(0.09 -0.09)">
       <defs>
        <path id="DejaVuSans-32" d="M 1228 531 
L 3431 531 
L 3431 0 
L 469 0 
L 469 531 
Q 828 903 1448 1529 
Q 2069 2156 2228 2338 
Q 2531 2678 2651 2914 
Q 2772 3150 2772 3378 
Q 2772 3750 2511 3984 
Q 2250 4219 1831 4219 
Q 1534 4219 1204 4116 
Q 875 4013 500 3803 
L 500 4441 
Q 881 4594 1212 4672 
Q 1544 4750 1819 4750 
Q 2544 4750 2975 4387 
Q 3406 4025 3406 3419 
Q 3406 3131 3298 2873 
Q 3191 2616 2906 2266 
Q 2828 2175 2409 1742 
Q 1991 1309 1228 531 
z
" transform="scale(0.015625)"/>
       </defs>
       <use xlink:href="#DejaVuSans-32"/>
       <use xlink:href="#DejaVuSans-30" transform="translate(63.623047 0)"/>
      </g>
     </g>
    </g>
    <g id="xtick_4">
     <g id="line2d_7">
      <defs>
       <path id="m576386ea5b" d="M 0 0 
L 0 3.2 
" style="stroke: #262626; stroke-width: 0.8"/>
      </defs>
      <g>
       <use xlink:href="#m576386ea5b" x="119.50582" y="74.533914" style="fill: #262626; stroke: #262626; stroke-width: 0.8"/>
      </g>
     </g>
    </g>
    <g id="xtick_5">
     <g id="line2d_8">
      <g>
       <use xlink:href="#m576386ea5b" x="128.325049" y="74.533914" style="fill: #262626; stroke: #262626; stroke-width: 0.8"/>
      </g>
     </g>
    </g>
    <g id="xtick_6">
     <g id="line2d_9">
      <g>
       <use xlink:href="#m576386ea5b" x="135.964612" y="74.533914" style="fill: #262626; stroke: #262626; stroke-width: 0.8"/>
      </g>
     </g>
    </g>
    <g id="xtick_7">
     <g id="line2d_10">
      <g>
       <use xlink:href="#m576386ea5b" x="142.703185" y="74.533914" style="fill: #262626; stroke: #262626; stroke-width: 0.8"/>
      </g>
     </g>
    </g>
    <g id="text_4">
     <!-- Training time (s) -->
     <g style="fill: #262626" transform="translate(113.661445 103.142664) scale(0.1 -0.1)">
      <defs>
       <path id="DejaVuSans-54" d="M -19 4666 
L 3928 4666 
L 3928 4134 
L 2272 4134 
L 2272 0 
L 1638 0 
L 1638 4134 
L -19 4134 
L -19 4666 
z
" transform="scale(0.015625)"/>
       <path id="DejaVuSans-72" d="M 2631 2963 
Q 2534 3019 2420 3045 
Q 2306 3072 2169 3072 
Q 1681 3072 1420 2755 
Q 1159 2438 1159 1844 
L 1159 0 
L 581 0 
L 581 3500 
L 1159 3500 
L 1159 2956 
Q 1341 3275 1631 3429 
Q 1922 3584 2338 3584 
Q 2397 3584 2469 3576 
Q 2541 3569 2628 3553 
L 2631 2963 
z
" transform="scale(0.015625)"/>
       <path id="DejaVuSans-61" d="M 2194 1759 
Q 1497 1759 1228 1600 
Q 959 1441 959 1056 
Q 959 750 1161 570 
Q 1363 391 1709 391 
Q 2188 391 2477 730 
Q 2766 1069 2766 1631 
L 2766 1759 
L 2194 1759 
z
M 3341 1997 
L 3341 0 
L 2766 0 
L 2766 531 
Q 2569 213 2275 61 
Q 1981 -91 1556 -91 
Q 1019 -91 701 211 
Q 384 513 384 1019 
Q 384 1609 779 1909 
Q 1175 2209 1959 2209 
L 2766 2209 
L 2766 2266 
Q 2766 2663 2505 2880 
Q 2244 3097 1772 3097 
Q 1472 3097 1187 3025 
Q 903 2953 641 2809 
L 641 3341 
Q 956 3463 1253 3523 
Q 1550 3584 1831 3584 
Q 2591 3584 2966 3190 
Q 3341 2797 3341 1997 
z
" transform="scale(0.015625)"/>
       <path id="DejaVuSans-69" d="M 603 3500 
L 1178 3500 
L 1178 0 
L 603 0 
L 603 3500 
z
M 603 4863 
L 1178 4863 
L 1178 4134 
L 603 4134 
L 603 4863 
z
" transform="scale(0.015625)"/>
       <path id="DejaVuSans-6e" d="M 3513 2113 
L 3513 0 
L 2938 0 
L 2938 2094 
Q 2938 2591 2744 2837 
Q 2550 3084 2163 3084 
Q 1697 3084 1428 2787 
Q 1159 2491 1159 1978 
L 1159 0 
L 581 0 
L 581 3500 
L 1159 3500 
L 1159 2956 
Q 1366 3272 1645 3428 
Q 1925 3584 2291 3584 
Q 2894 3584 3203 3211 
Q 3513 2838 3513 2113 
z
" transform="scale(0.015625)"/>
       <path id="DejaVuSans-67" d="M 2906 1791 
Q 2906 2416 2648 2759 
Q 2391 3103 1925 3103 
Q 1463 3103 1205 2759 
Q 947 2416 947 1791 
Q 947 1169 1205 825 
Q 1463 481 1925 481 
Q 2391 481 2648 825 
Q 2906 1169 2906 1791 
z
M 3481 434 
Q 3481 -459 3084 -895 
Q 2688 -1331 1869 -1331 
Q 1566 -1331 1297 -1286 
Q 1028 -1241 775 -1147 
L 775 -588 
Q 1028 -725 1275 -790 
Q 1522 -856 1778 -856 
Q 2344 -856 2625 -561 
Q 2906 -266 2906 331 
L 2906 616 
Q 2728 306 2450 153 
Q 2172 0 1784 0 
Q 1141 0 747 490 
Q 353 981 353 1791 
Q 353 2603 747 3093 
Q 1141 3584 1784 3584 
Q 2172 3584 2450 3431 
Q 2728 3278 2906 2969 
L 2906 3500 
L 3481 3500 
L 3481 434 
z
" transform="scale(0.015625)"/>
       <path id="DejaVuSans-20" transform="scale(0.015625)"/>
       <path id="DejaVuSans-74" d="M 1172 4494 
L 1172 3500 
L 2356 3500 
L 2356 3053 
L 1172 3053 
L 1172 1153 
Q 1172 725 1289 603 
Q 1406 481 1766 481 
L 2356 481 
L 2356 0 
L 1766 0 
Q 1100 0 847 248 
Q 594 497 594 1153 
L 594 3053 
L 172 3053 
L 172 3500 
L 594 3500 
L 594 4494 
L 1172 4494 
z
" transform="scale(0.015625)"/>
       <path id="DejaVuSans-6d" d="M 3328 2828 
Q 3544 3216 3844 3400 
Q 4144 3584 4550 3584 
Q 5097 3584 5394 3201 
Q 5691 2819 5691 2113 
L 5691 0 
L 5113 0 
L 5113 2094 
Q 5113 2597 4934 2840 
Q 4756 3084 4391 3084 
Q 3944 3084 3684 2787 
Q 3425 2491 3425 1978 
L 3425 0 
L 2847 0 
L 2847 2094 
Q 2847 2600 2669 2842 
Q 2491 3084 2119 3084 
Q 1678 3084 1418 2786 
Q 1159 2488 1159 1978 
L 1159 0 
L 581 0 
L 581 3500 
L 1159 3500 
L 1159 2956 
Q 1356 3278 1631 3431 
Q 1906 3584 2284 3584 
Q 2666 3584 2933 3390 
Q 3200 3197 3328 2828 
z
" transform="scale(0.015625)"/>
       <path id="DejaVuSans-65" d="M 3597 1894 
L 3597 1613 
L 953 1613 
Q 991 1019 1311 708 
Q 1631 397 2203 397 
Q 2534 397 2845 478 
Q 3156 559 3463 722 
L 3463 178 
Q 3153 47 2828 -22 
Q 2503 -91 2169 -91 
Q 1331 -91 842 396 
Q 353 884 353 1716 
Q 353 2575 817 3079 
Q 1281 3584 2069 3584 
Q 2775 3584 3186 3129 
Q 3597 2675 3597 1894 
z
M 3022 2063 
Q 3016 2534 2758 2815 
Q 2500 3097 2075 3097 
Q 1594 3097 1305 2825 
Q 1016 2553 972 2059 
L 3022 2063 
z
" transform="scale(0.015625)"/>
       <path id="DejaVuSans-28" d="M 1984 4856 
Q 1566 4138 1362 3434 
Q 1159 2731 1159 2009 
Q 1159 1288 1364 580 
Q 1569 -128 1984 -844 
L 1484 -844 
Q 1016 -109 783 600 
Q 550 1309 550 2009 
Q 550 2706 781 3412 
Q 1013 4119 1484 4856 
L 1984 4856 
z
" transform="scale(0.015625)"/>
       <path id="DejaVuSans-73" d="M 2834 3397 
L 2834 2853 
Q 2591 2978 2328 3040 
Q 2066 3103 1784 3103 
Q 1356 3103 1142 2972 
Q 928 2841 928 2578 
Q 928 2378 1081 2264 
Q 1234 2150 1697 2047 
L 1894 2003 
Q 2506 1872 2764 1633 
Q 3022 1394 3022 966 
Q 3022 478 2636 193 
Q 2250 -91 1575 -91 
Q 1294 -91 989 -36 
Q 684 19 347 128 
L 347 722 
Q 666 556 975 473 
Q 1284 391 1588 391 
Q 1994 391 2212 530 
Q 2431 669 2431 922 
Q 2431 1156 2273 1281 
Q 2116 1406 1581 1522 
L 1381 1569 
Q 847 1681 609 1914 
Q 372 2147 372 2553 
Q 372 3047 722 3315 
Q 1072 3584 1716 3584 
Q 2034 3584 2315 3537 
Q 2597 3491 2834 3397 
z
" transform="scale(0.015625)"/>
       <path id="DejaVuSans-29" d="M 513 4856 
L 1013 4856 
Q 1481 4119 1714 3412 
Q 1947 2706 1947 2009 
Q 1947 1309 1714 600 
Q 1481 -109 1013 -844 
L 513 -844 
Q 928 -128 1133 580 
Q 1338 1288 1338 2009 
Q 1338 2731 1133 3434 
Q 928 4138 513 4856 
z
" transform="scale(0.015625)"/>
      </defs>
      <use xlink:href="#DejaVuSans-54"/>
      <use xlink:href="#DejaVuSans-72" transform="translate(46.333984 0)"/>
      <use xlink:href="#DejaVuSans-61" transform="translate(87.447266 0)"/>
      <use xlink:href="#DejaVuSans-69" transform="translate(148.726562 0)"/>
      <use xlink:href="#DejaVuSans-6e" transform="translate(176.509766 0)"/>
      <use xlink:href="#DejaVuSans-69" transform="translate(239.888672 0)"/>
      <use xlink:href="#DejaVuSans-6e" transform="translate(267.671875 0)"/>
      <use xlink:href="#DejaVuSans-67" transform="translate(331.050781 0)"/>
      <use xlink:href="#DejaVuSans-20" transform="translate(394.527344 0)"/>
      <use xlink:href="#DejaVuSans-74" transform="translate(426.314453 0)"/>
      <use xlink:href="#DejaVuSans-69" transform="translate(465.523438 0)"/>
      <use xlink:href="#DejaVuSans-6d" transform="translate(493.306641 0)"/>
      <use xlink:href="#DejaVuSans-65" transform="translate(590.71875 0)"/>
      <use xlink:href="#DejaVuSans-20" transform="translate(652.242188 0)"/>
      <use xlink:href="#DejaVuSans-28" transform="translate(684.029297 0)"/>
      <use xlink:href="#DejaVuSans-73" transform="translate(723.042969 0)"/>
      <use xlink:href="#DejaVuSans-29" transform="translate(775.142578 0)"/>
     </g>
    </g>
   </g>
   <g id="matplotlib.axis_2">
    <g id="ytick_1">
     <g id="line2d_11">
      <path d="M 98.439654 74.533914 
L 210.295737 74.533914 
" clip-path="url(#p7fcdb683a3)" style="fill: none; stroke: #cccccc; stroke-opacity: 0.25; stroke-width: 0.5; stroke-linecap: round"/>
     </g>
     <g id="line2d_12">
      <defs>
       <path id="m6368178fb6" d="M 0 0 
L -4.8 0 
" style="stroke: #262626"/>
      </defs>
      <g>
       <use xlink:href="#m6368178fb6" x="98.439654" y="74.533914" style="fill: #262626; stroke: #262626"/>
      </g>
     </g>
     <g id="text_5">
      <!-- 99.0 -->
      <g style="fill: #262626" transform="translate(70.100592 77.953211) scale(0.09 -0.09)">
       <defs>
        <path id="DejaVuSans-39" d="M 703 97 
L 703 672 
Q 941 559 1184 500 
Q 1428 441 1663 441 
Q 2288 441 2617 861 
Q 2947 1281 2994 2138 
Q 2813 1869 2534 1725 
Q 2256 1581 1919 1581 
Q 1219 1581 811 2004 
Q 403 2428 403 3163 
Q 403 3881 828 4315 
Q 1253 4750 1959 4750 
Q 2769 4750 3195 4129 
Q 3622 3509 3622 2328 
Q 3622 1225 3098 567 
Q 2575 -91 1691 -91 
Q 1453 -91 1209 -44 
Q 966 3 703 97 
z
M 1959 2075 
Q 2384 2075 2632 2365 
Q 2881 2656 2881 3163 
Q 2881 3666 2632 3958 
Q 2384 4250 1959 4250 
Q 1534 4250 1286 3958 
Q 1038 3666 1038 3163 
Q 1038 2656 1286 2365 
Q 1534 2075 1959 2075 
z
" transform="scale(0.015625)"/>
        <path id="DejaVuSans-2e" d="M 684 794 
L 1344 794 
L 1344 0 
L 684 0 
L 684 794 
z
" transform="scale(0.015625)"/>
       </defs>
       <use xlink:href="#DejaVuSans-39"/>
       <use xlink:href="#DejaVuSans-39" transform="translate(63.623047 0)"/>
       <use xlink:href="#DejaVuSans-2e" transform="translate(127.246094 0)"/>
       <use xlink:href="#DejaVuSans-30" transform="translate(159.033203 0)"/>
      </g>
     </g>
    </g>
    <g id="ytick_2">
     <g id="line2d_13">
      <path d="M 98.439654 39.696605 
L 210.295737 39.696605 
" clip-path="url(#p7fcdb683a3)" style="fill: none; stroke: #cccccc; stroke-opacity: 0.25; stroke-width: 0.5; stroke-linecap: round"/>
     </g>
     <g id="line2d_14">
      <g>
       <use xlink:href="#m6368178fb6" x="98.439654" y="39.696605" style="fill: #262626; stroke: #262626"/>
      </g>
     </g>
     <g id="text_6">
      <!-- 99.5 -->
      <g style="fill: #262626" transform="translate(70.100592 43.115902) scale(0.09 -0.09)">
       <use xlink:href="#DejaVuSans-39"/>
       <use xlink:href="#DejaVuSans-39" transform="translate(63.623047 0)"/>
       <use xlink:href="#DejaVuSans-2e" transform="translate(127.246094 0)"/>
       <use xlink:href="#DejaVuSans-35" transform="translate(159.033203 0)"/>
      </g>
     </g>
    </g>
    <g id="ytick_3">
     <g id="line2d_15">
      <path d="M 98.439654 4.859297 
L 210.295737 4.859297 
" clip-path="url(#p7fcdb683a3)" style="fill: none; stroke: #cccccc; stroke-opacity: 0.25; stroke-width: 0.5; stroke-linecap: round"/>
     </g>
     <g id="line2d_16">
      <g>
       <use xlink:href="#m6368178fb6" x="98.439654" y="4.859297" style="fill: #262626; stroke: #262626"/>
      </g>
     </g>
     <g id="text_7">
      <!-- 100.0 -->
      <g style="fill: #262626" transform="translate(64.374342 8.278594) scale(0.09 -0.09)">
       <use xlink:href="#DejaVuSans-31"/>
       <use xlink:href="#DejaVuSans-30" transform="translate(63.623047 0)"/>
       <use xlink:href="#DejaVuSans-30" transform="translate(127.246094 0)"/>
       <use xlink:href="#DejaVuSans-2e" transform="translate(190.869141 0)"/>
       <use xlink:href="#DejaVuSans-30" transform="translate(222.65625 0)"/>
      </g>
     </g>
    </g>
    <g id="text_8">
     <!-- IoU (%) -->
     <g style="fill: #262626" transform="translate(58.294654 57.381382) rotate(-90) scale(0.1 -0.1)">
      <defs>
       <path id="DejaVuSans-49" d="M 628 4666 
L 1259 4666 
L 1259 0 
L 628 0 
L 628 4666 
z
" transform="scale(0.015625)"/>
       <path id="DejaVuSans-6f" d="M 1959 3097 
Q 1497 3097 1228 2736 
Q 959 2375 959 1747 
Q 959 1119 1226 758 
Q 1494 397 1959 397 
Q 2419 397 2687 759 
Q 2956 1122 2956 1747 
Q 2956 2369 2687 2733 
Q 2419 3097 1959 3097 
z
M 1959 3584 
Q 2709 3584 3137 3096 
Q 3566 2609 3566 1747 
Q 3566 888 3137 398 
Q 2709 -91 1959 -91 
Q 1206 -91 779 398 
Q 353 888 353 1747 
Q 353 2609 779 3096 
Q 1206 3584 1959 3584 
z
" transform="scale(0.015625)"/>
       <path id="DejaVuSans-55" d="M 556 4666 
L 1191 4666 
L 1191 1831 
Q 1191 1081 1462 751 
Q 1734 422 2344 422 
Q 2950 422 3222 751 
Q 3494 1081 3494 1831 
L 3494 4666 
L 4128 4666 
L 4128 1753 
Q 4128 841 3676 375 
Q 3225 -91 2344 -91 
Q 1459 -91 1007 375 
Q 556 841 556 1753 
L 556 4666 
z
" transform="scale(0.015625)"/>
       <path id="DejaVuSans-25" d="M 4653 2053 
Q 4381 2053 4226 1822 
Q 4072 1591 4072 1178 
Q 4072 772 4226 539 
Q 4381 306 4653 306 
Q 4919 306 5073 539 
Q 5228 772 5228 1178 
Q 5228 1588 5073 1820 
Q 4919 2053 4653 2053 
z
M 4653 2450 
Q 5147 2450 5437 2106 
Q 5728 1763 5728 1178 
Q 5728 594 5436 251 
Q 5144 -91 4653 -91 
Q 4153 -91 3862 251 
Q 3572 594 3572 1178 
Q 3572 1766 3864 2108 
Q 4156 2450 4653 2450 
z
M 1428 4353 
Q 1159 4353 1004 4120 
Q 850 3888 850 3481 
Q 850 3069 1003 2837 
Q 1156 2606 1428 2606 
Q 1700 2606 1854 2837 
Q 2009 3069 2009 3481 
Q 2009 3884 1853 4118 
Q 1697 4353 1428 4353 
z
M 4250 4750 
L 4750 4750 
L 1831 -91 
L 1331 -91 
L 4250 4750 
z
M 1428 4750 
Q 1922 4750 2215 4408 
Q 2509 4066 2509 3481 
Q 2509 2891 2217 2550 
Q 1925 2209 1428 2209 
Q 931 2209 642 2551 
Q 353 2894 353 3481 
Q 353 4063 643 4406 
Q 934 4750 1428 4750 
z
" transform="scale(0.015625)"/>
      </defs>
      <use xlink:href="#DejaVuSans-49"/>
      <use xlink:href="#DejaVuSans-6f" transform="translate(29.492188 0)"/>
      <use xlink:href="#DejaVuSans-55" transform="translate(90.673828 0)"/>
      <use xlink:href="#DejaVuSans-20" transform="translate(163.867188 0)"/>
      <use xlink:href="#DejaVuSans-28" transform="translate(195.654297 0)"/>
      <use xlink:href="#DejaVuSans-25" transform="translate(234.667969 0)"/>
      <use xlink:href="#DejaVuSans-29" transform="translate(329.6875 0)"/>
     </g>
    </g>
   </g>
   <g id="FillBetweenPolyCollection_1">
    <path d="M -13.830845 487.634262 
L -13.830845 500.416487 
L 25.675976 498.559328 
L 50.293209 499.018751 
L 66.385151 487.450957 
L 79.272713 476.628117 
L 89.727145 458.005088 
L 98.451813 437.621456 
L 105.936498 401.439396 
L 112.551322 374.348559 
L 118.757735 339.255306 
L 124.106988 301.949028 
L 128.999012 268.248886 
L 133.50364 224.42428 
L 137.677803 184.381891 
L 141.57158 142.510871 
L 145.228189 103.777721 
L 148.654877 73.122821 
L 151.891164 51.267606 
L 155.07028 40.171229 
L 157.994841 35.47315 
L 157.994841 33.301781 
L 157.994841 33.301781 
L 155.07028 38.439005 
L 151.891164 48.863614 
L 148.654877 65.826342 
L 145.228189 89.981157 
L 141.57158 119.974195 
L 137.677803 153.99948 
L 133.50364 187.468784 
L 128.999012 224.48762 
L 124.106988 251.246676 
L 118.757735 284.762818 
L 112.551322 318.656557 
L 105.936498 344.499142 
L 98.451813 372.51076 
L 89.727145 395.234716 
L 79.272713 416.203902 
L 66.385151 424.953825 
L 50.293209 445.742013 
L 25.675976 451.542604 
L -13.830845 487.634262 
z
" clip-path="url(#p7fcdb683a3)" style="fill: #eb6834; fill-opacity: 0.15"/>
   </g>
   <g id="FillBetweenPolyCollection_2">
    <path d="M 46.479097 411.299777 
L 46.479097 424.568152 
L 57.863571 250.796834 
L 67.395469 204.942194 
L 75.787896 178.017829 
L 83.08743 156.385903 
L 89.356696 138.683897 
L 95.004902 121.802631 
L 100.288991 107.352157 
L 105.108169 91.685152 
L 109.482719 78.859949 
L 113.532524 65.308336 
L 117.296474 53.392421 
L 120.826767 41.469771 
L 124.168987 31.963009 
L 127.312136 25.064983 
L 130.306745 19.595567 
L 133.326871 16.880095 
L 136.092694 15.35287 
L 138.657119 14.715221 
L 141.156611 14.417187 
L 141.156611 9.302431 
L 141.156611 9.302431 
L 138.657119 9.448595 
L 136.092694 9.730738 
L 133.326871 10.142765 
L 130.306745 11.111773 
L 127.312136 12.483065 
L 124.168987 16.684494 
L 120.826767 22.723481 
L 117.296474 31.086237 
L 113.532524 40.926862 
L 109.482719 52.921089 
L 105.108169 64.907488 
L 100.288991 77.123592 
L 95.004902 90.439614 
L 89.356696 105.907021 
L 83.08743 124.638676 
L 75.787896 147.329154 
L 67.395469 174.685089 
L 57.863571 224.293537 
L 46.479097 411.299777 
z
" clip-path="url(#p7fcdb683a3)" style="fill: #2a78d6; fill-opacity: 0.15"/>
   </g>
   <g id="FillBetweenPolyCollection_3">
    <path d="M -16.47304 449.861019 
L -16.47304 480.382262 
L 24.39865 258.213303 
L 47.38811 207.52474 
L 63.79838 180.462201 
L 76.869322 158.778451 
L 86.873393 139.368383 
L 95.314429 122.68205 
L 102.754533 106.549048 
L 109.428694 92.378582 
L 115.320457 78.400497 
L 120.907971 63.886487 
L 126.033167 51.756879 
L 130.563174 39.751849 
L 134.638732 30.195504 
L 138.483645 23.921933 
L 142.14555 18.850248 
L 145.698488 16.353258 
L 149.107529 15.006782 
L 152.207518 14.479757 
L 155.264767 14.260795 
L 155.264767 9.042866 
L 155.264767 9.042866 
L 152.207518 9.144511 
L 149.107529 9.419333 
L 145.698488 9.654958 
L 142.14555 10.484964 
L 138.483645 11.394164 
L 134.638732 14.521997 
L 130.563174 20.919219 
L 126.033167 29.2383 
L 120.907971 38.19877 
L 115.320457 51.513549 
L 109.428694 62.925486 
L 102.754533 75.41667 
L 95.314429 91.343962 
L 86.873393 104.806743 
L 76.869322 127.166355 
L 63.79838 148.820597 
L 47.38811 177.714315 
L 24.39865 232.88861 
L -16.47304 449.861019 
z
" clip-path="url(#p7fcdb683a3)" style="fill: #2a78d6; fill-opacity: 0.15"/>
   </g>
   <g id="FillBetweenPolyCollection_4">
    <path d="M 30.613457 275.729009 
L 30.613457 314.776625 
L 72.607148 201.494746 
L 96.959664 162.435025 
L 113.105019 142.159772 
L 125.944031 125.821668 
L 135.872209 110.719796 
L 144.302478 96.21325 
L 151.951202 85.641875 
L 158.604439 76.04457 
L 164.509504 65.418687 
L 169.826088 55.069074 
L 174.975217 45.942287 
L 179.469547 37.927059 
L 183.608949 31.202918 
L 187.633393 26.145164 
L 191.645111 22.241043 
L 195.273133 19.992026 
L 198.703246 18.574259 
L 201.839516 17.967654 
L 204.842875 17.698086 
L 204.842875 10.772652 
L 204.842875 10.772652 
L 201.839516 10.811895 
L 198.703246 10.826071 
L 195.273133 10.741062 
L 191.645111 11.135302 
L 187.633393 10.986593 
L 183.608949 12.334652 
L 179.469547 15.160425 
L 174.975217 19.239694 
L 169.826088 24.232374 
L 164.509504 31.454309 
L 158.604439 38.867761 
L 151.951202 49.447719 
L 144.302478 56.124629 
L 135.872209 67.038837 
L 125.944031 82.338079 
L 113.105019 100.384415 
L 96.959664 129.13152 
L 72.607148 172.385379 
L 30.613457 275.729009 
z
" clip-path="url(#p7fcdb683a3)" style="fill: #1baf7a; fill-opacity: 0.15"/>
   </g>
   <g id="FillBetweenPolyCollection_5">
    <path d="M -16.160495 497.172205 
L -16.160495 520.638114 
L 21.442584 485.386037 
L 43.95251 469.279472 
L 60.043445 457.520953 
L 72.608107 451.743603 
L 82.927865 436.415487 
L 91.633029 404.097938 
L 99.199526 383.952125 
L 105.969705 348.268196 
L 111.934079 322.13874 
L 117.354104 287.354223 
L 122.291122 257.706888 
L 127.170882 219.10096 
L 131.391842 188.075503 
L 135.292432 155.706169 
L 138.941219 124.337236 
L 142.368178 103.403464 
L 145.604123 86.708016 
L 148.666156 76.523315 
L 151.57089 71.829978 
L 151.57089 56.33801 
L 151.57089 56.33801 
L 148.666156 60.838763 
L 145.604123 70.775012 
L 142.368178 87.291548 
L 138.941219 107.151351 
L 135.292432 132.639363 
L 131.391842 161.202494 
L 127.170882 187.750612 
L 122.291122 218.505272 
L 117.354104 244.306042 
L 111.934079 275.346476 
L 105.969705 295.174182 
L 99.199526 325.675844 
L 91.633029 349.937985 
L 82.927865 368.753811 
L 72.608107 388.023097 
L 60.043445 398.973918 
L 43.95251 415.727428 
L 21.442584 440.259119 
L -16.160495 497.172205 
z
" clip-path="url(#p7fcdb683a3)" style="fill: #eb6834; fill-opacity: 0.15"/>
   </g>
   <g id="FillBetweenPolyCollection_6">
    <path d="M -29.417686 355.061074 
L -29.417686 398.593277 
L 5.475294 255.280797 
L 27.761748 210.737944 
L 42.849409 182.945338 
L 54.750602 163.511534 
L 65.747659 149.256951 
L 74.240022 132.723142 
L 81.896899 118.954869 
L 88.039458 105.275056 
L 93.888312 95.658086 
L 99.091315 83.098879 
L 103.892515 71.749993 
L 108.509167 59.883335 
L 113.15079 50.208707 
L 116.906823 41.593177 
L 120.356247 33.666662 
L 123.540962 29.223088 
L 126.757025 27.514518 
L 129.83589 26.768339 
L 132.666556 26.436177 
L 132.666556 21.56297 
L 132.666556 21.56297 
L 129.83589 22.423696 
L 126.757025 24.093526 
L 123.540962 27.227772 
L 120.356247 30.98175 
L 116.906823 35.690611 
L 113.15079 42.04623 
L 108.509167 50.191164 
L 103.892515 58.591141 
L 99.091315 67.240443 
L 93.888312 76.753067 
L 88.039458 86.282271 
L 81.896899 97.375853 
L 74.240022 111.875251 
L 65.747659 124.808645 
L 54.750602 139.928406 
L 42.849409 159.047754 
L 27.761748 188.727391 
L 5.475294 232.967886 
L -29.417686 355.061074 
z
" clip-path="url(#p7fcdb683a3)" style="fill: #4a3aa7; fill-opacity: 0.15"/>
   </g>
   <g id="line2d_17">
    <path d="M 141.24302 134.444634 
L 141.57158 131.242533 
L 145.228189 96.879439 
L 148.654877 69.474581 
L 151.891164 50.06561 
L 155.07028 39.305117 
L 157.994841 34.387465 
" clip-path="url(#p7fcdb683a3)" style="fill: none; stroke: #eb6834; stroke-width: 1.5; stroke-linecap: round"/>
   </g>
   <g id="line2d_18">
    <path d="M 85.175595 134.444634 
L 89.356696 122.295459 
L 95.004902 106.121122 
L 100.288991 92.237875 
L 105.108169 78.29632 
L 109.482719 65.890519 
L 113.532524 53.117599 
L 117.296474 42.239329 
L 120.826767 32.096626 
L 124.168987 24.323751 
L 127.312136 18.774024 
L 130.306745 15.35367 
L 133.326871 13.51143 
L 136.092694 12.541804 
L 138.657119 12.081908 
L 141.156611 11.859809 
" clip-path="url(#p7fcdb683a3)" style="fill: none; stroke-dasharray: 6,3; stroke-dashoffset: 0; stroke: #2a78d6; stroke-width: 1.5"/>
   </g>
   <g id="line2d_19">
    <path d="M 80.954218 134.444634 
L 86.873393 122.087563 
L 95.314429 107.013006 
L 102.754533 90.982859 
L 109.428694 77.652034 
L 115.320457 64.957023 
L 120.907971 51.042628 
L 126.033167 40.497589 
L 130.563174 30.335534 
L 134.638732 22.358751 
L 138.483645 17.658048 
L 142.14555 14.667606 
L 145.698488 13.004108 
L 149.107529 12.213058 
L 152.207518 11.812134 
L 155.264767 11.65183 
" clip-path="url(#p7fcdb683a3)" style="fill: none; stroke: #2a78d6; stroke-width: 1.5; stroke-linecap: round"/>
   </g>
   <g id="line2d_20">
    <path d="M 104.428352 134.444634 
L 113.105019 121.272094 
L 125.944031 104.079874 
L 135.872209 88.879316 
L 144.302478 76.168939 
L 151.951202 67.544797 
L 158.604439 57.456165 
L 164.509504 48.436498 
L 169.826088 39.650724 
L 174.975217 32.590991 
L 179.469547 26.543742 
L 183.608949 21.768785 
L 187.633393 18.565879 
L 191.645111 16.688173 
L 195.273133 15.366544 
L 198.703246 14.700165 
L 201.839516 14.389775 
L 204.842875 14.235369 
" clip-path="url(#p7fcdb683a3)" style="fill: none; stroke: #1baf7a; stroke-width: 1.5; stroke-linecap: round"/>
   </g>
   <g id="line2d_21">
    <path d="M 136.541035 134.444634 
L 138.941219 115.744293 
L 142.368178 95.347506 
L 145.604123 78.741514 
L 148.666156 68.681039 
L 151.57089 64.083994 
" clip-path="url(#p7fcdb683a3)" style="fill: none; stroke-dasharray: 6,3; stroke-dashoffset: 0; stroke: #eb6834; stroke-width: 1.5"/>
   </g>
   <g id="line2d_22">
    <path d="M 67.239462 134.444634 
L 74.240022 122.299196 
L 81.896899 108.165361 
L 88.039458 95.778663 
L 93.888312 86.205576 
L 99.091315 75.169661 
L 103.892515 65.170567 
L 108.509167 55.037249 
L 113.15079 46.127469 
L 116.906823 38.641894 
L 120.356247 32.324206 
L 123.540962 28.22543 
L 126.757025 25.804022 
L 129.83589 24.596017 
L 132.666556 23.999574 
" clip-path="url(#p7fcdb683a3)" style="fill: none; stroke: #4a3aa7; stroke-width: 1.5; stroke-linecap: round"/>
   </g>
   <g id="patch_3">
    <path d="M 98.439654 74.533914 
L 98.439654 3.358538 
" style="fill: none; stroke: #262626; stroke-width: 0.8; stroke-linejoin: miter; stroke-linecap: square"/>
   </g>
   <g id="patch_4">
    <path d="M 98.439654 74.533914 
L 210.295737 74.533914 
" style="fill: none; stroke: #262626; stroke-width: 0.8; stroke-linejoin: miter; stroke-linecap: square"/>
   </g>
   <g id="line2d_23">
    <path d="M 151.57089 64.083994 
" style="fill: none; stroke: #eb6834; stroke-width: 1.5; stroke-linecap: round"/>
    <defs>
     <path id="mb5d97b0e5d" d="M 0 2 
C 0.530406 2 1.03916 1.789267 1.414214 1.414214 
C 1.789267 1.03916 2 0.530406 2 0 
C 2 -0.530406 1.789267 -1.03916 1.414214 -1.414214 
C 1.03916 -1.789267 0.530406 -2 0 -2 
C -0.530406 -2 -1.03916 -1.789267 -1.414214 -1.414214 
C -1.789267 -1.03916 -2 -0.530406 -2 0 
C -2 0.530406 -1.789267 1.03916 -1.414214 1.414214 
C -1.03916 1.789267 -0.530406 2 0 2 
z
" style="stroke: #eb6834"/>
    </defs>
    <g>
     <use xlink:href="#mb5d97b0e5d" x="151.57089" y="64.083994" style="fill: #ffffff; stroke: #eb6834"/>
    </g>
   </g>
   <g id="line2d_24">
    <path d="M 157.994841 34.387465 
" style="fill: none; stroke: #eb6834; stroke-width: 1.5; stroke-linecap: round"/>
    <defs>
     <path id="m20f8dd3b20" d="M 0 2 
C 0.530406 2 1.03916 1.789267 1.414214 1.414214 
C 1.789267 1.03916 2 0.530406 2 0 
C 2 -0.530406 1.789267 -1.03916 1.414214 -1.414214 
C 1.03916 -1.789267 0.530406 -2 0 -2 
C -0.530406 -2 -1.03916 -1.789267 -1.414214 -1.414214 
C -1.789267 -1.03916 -2 -0.530406 -2 0 
C -2 0.530406 -1.789267 1.03916 -1.414214 1.414214 
C -1.03916 1.789267 -0.530406 2 0 2 
z
" style="stroke: #eb6834"/>
    </defs>
    <g>
     <use xlink:href="#m20f8dd3b20" x="157.994841" y="34.387465" style="fill: #eb6834; stroke: #eb6834"/>
    </g>
   </g>
   <g id="line2d_25">
    <path d="M 204.842875 14.235369 
" style="fill: none; stroke: #1baf7a; stroke-width: 1.5; stroke-linecap: round"/>
    <defs>
     <path id="m7953ae7cd0" d="M 0 2 
C 0.530406 2 1.03916 1.789267 1.414214 1.414214 
C 1.789267 1.03916 2 0.530406 2 0 
C 2 -0.530406 1.789267 -1.03916 1.414214 -1.414214 
C 1.03916 -1.789267 0.530406 -2 0 -2 
C -0.530406 -2 -1.03916 -1.789267 -1.414214 -1.414214 
C -1.789267 -1.03916 -2 -0.530406 -2 0 
C -2 0.530406 -1.789267 1.03916 -1.414214 1.414214 
C -1.03916 1.789267 -0.530406 2 0 2 
z
" style="stroke: #1baf7a"/>
    </defs>
    <g>
     <use xlink:href="#m7953ae7cd0" x="204.842875" y="14.235369" style="fill: #1baf7a; stroke: #1baf7a"/>
    </g>
   </g>
   <g id="line2d_26">
    <path d="M 132.666556 23.999574 
" style="fill: none; stroke: #4a3aa7; stroke-width: 1.5; stroke-linecap: round"/>
    <defs>
     <path id="m38cd21abc7" d="M 0 2 
C 0.530406 2 1.03916 1.789267 1.414214 1.414214 
C 1.789267 1.03916 2 0.530406 2 0 
C 2 -0.530406 1.789267 -1.03916 1.414214 -1.414214 
C 1.03916 -1.789267 0.530406 -2 0 -2 
C -0.530406 -2 -1.03916 -1.789267 -1.414214 -1.414214 
C -1.789267 -1.03916 -2 -0.530406 -2 0 
C -2 0.530406 -1.789267 1.03916 -1.414214 1.414214 
C -1.03916 1.789267 -0.530406 2 0 2 
z
" style="stroke: #4a3aa7"/>
    </defs>
    <g>
     <use xlink:href="#m38cd21abc7" x="132.666556" y="23.999574" style="fill: #4a3aa7; stroke: #4a3aa7"/>
    </g>
   </g>
   <g id="line2d_27">
    <path d="M 155.264767 11.65183 
" style="fill: none; stroke: #2a78d6; stroke-width: 1.5; stroke-linecap: round"/>
    <defs>
     <path id="mf399484259" d="M 0 2 
C 0.530406 2 1.03916 1.789267 1.414214 1.414214 
C 1.789267 1.03916 2 0.530406 2 0 
C 2 -0.530406 1.789267 -1.03916 1.414214 -1.414214 
C 1.03916 -1.789267 0.530406 -2 0 -2 
C -0.530406 -2 -1.03916 -1.789267 -1.414214 -1.414214 
C -1.789267 -1.03916 -2 -0.530406 -2 0 
C -2 0.530406 -1.789267 1.03916 -1.414214 1.414214 
C -1.03916 1.789267 -0.530406 2 0 2 
z
" style="stroke: #2a78d6"/>
    </defs>
    <g>
     <use xlink:href="#mf399484259" x="155.264767" y="11.65183" style="fill: #2a78d6; stroke: #2a78d6"/>
    </g>
   </g>
   <g id="line2d_28">
    <path d="M 141.156611 11.859809 
" style="fill: none; stroke: #2a78d6; stroke-width: 1.5; stroke-linecap: round"/>
    <defs>
     <path id="ma15ffd874b" d="M 0 2 
C 0.530406 2 1.03916 1.789267 1.414214 1.414214 
C 1.789267 1.03916 2 0.530406 2 0 
C 2 -0.530406 1.789267 -1.03916 1.414214 -1.414214 
C 1.03916 -1.789267 0.530406 -2 0 -2 
C -0.530406 -2 -1.03916 -1.789267 -1.414214 -1.414214 
C -1.789267 -1.03916 -2 -0.530406 -2 0 
C -2 0.530406 -1.789267 1.03916 -1.414214 1.414214 
C -1.03916 1.789267 -0.530406 2 0 2 
z
" style="stroke: #2a78d6"/>
    </defs>
    <g>
     <use xlink:href="#ma15ffd874b" x="141.156611" y="11.859809" style="fill: #ffffff; stroke: #2a78d6"/>
    </g>
   </g>
  </g>
  <g id="legend_1">
   <g id="line2d_29">
    <path d="M 4.04 114.427056 
L 9.24 114.427056 
L 14.44 114.427056 
" style="fill: none; stroke-dasharray: 6,3; stroke-dashoffset: 0; stroke: #eb6834; stroke-width: 1.5"/>
    <defs>
     <path id="m4ad1a8b6ca" d="M 0 2.4 
C 0.636487 2.4 1.246992 2.147121 1.697056 1.697056 
C 2.147121 1.246992 2.4 0.636487 2.4 0 
C 2.4 -0.636487 2.147121 -1.246992 1.697056 -1.697056 
C 1.246992 -2.147121 0.636487 -2.4 0 -2.4 
C -0.636487 -2.4 -1.246992 -2.147121 -1.697056 -1.697056 
C -2.147121 -1.246992 -2.4 -0.636487 -2.4 0 
C -2.4 0.636487 -2.147121 1.246992 -1.697056 1.697056 
C -1.246992 2.147121 -0.636487 2.4 0 2.4 
z
" style="stroke: #eb6834"/>
    </defs>
    <g>
     <use xlink:href="#m4ad1a8b6ca" x="9.24" y="114.427056" style="fill: #ffffff; stroke: #eb6834"/>
    </g>
   </g>
   <g id="text_9">
    <!-- SIREN -->
    <g style="fill: #262626" transform="translate(19.64 116.702056) scale(0.065 -0.065)">
     <defs>
      <path id="DejaVuSans-53" d="M 3425 4513 
L 3425 3897 
Q 3066 4069 2747 4153 
Q 2428 4238 2131 4238 
Q 1616 4238 1336 4038 
Q 1056 3838 1056 3469 
Q 1056 3159 1242 3001 
Q 1428 2844 1947 2747 
L 2328 2669 
Q 3034 2534 3370 2195 
Q 3706 1856 3706 1288 
Q 3706 609 3251 259 
Q 2797 -91 1919 -91 
Q 1588 -91 1214 -16 
Q 841 59 441 206 
L 441 856 
Q 825 641 1194 531 
Q 1563 422 1919 422 
Q 2459 422 2753 634 
Q 3047 847 3047 1241 
Q 3047 1584 2836 1778 
Q 2625 1972 2144 2069 
L 1759 2144 
Q 1053 2284 737 2584 
Q 422 2884 422 3419 
Q 422 4038 858 4394 
Q 1294 4750 2059 4750 
Q 2388 4750 2728 4690 
Q 3069 4631 3425 4513 
z
" transform="scale(0.015625)"/>
      <path id="DejaVuSans-52" d="M 2841 2188 
Q 3044 2119 3236 1894 
Q 3428 1669 3622 1275 
L 4263 0 
L 3584 0 
L 2988 1197 
Q 2756 1666 2539 1819 
Q 2322 1972 1947 1972 
L 1259 1972 
L 1259 0 
L 628 0 
L 628 4666 
L 2053 4666 
Q 2853 4666 3247 4331 
Q 3641 3997 3641 3322 
Q 3641 2881 3436 2590 
Q 3231 2300 2841 2188 
z
M 1259 4147 
L 1259 2491 
L 2053 2491 
Q 2509 2491 2742 2702 
Q 2975 2913 2975 3322 
Q 2975 3731 2742 3939 
Q 2509 4147 2053 4147 
L 1259 4147 
z
" transform="scale(0.015625)"/>
      <path id="DejaVuSans-45" d="M 628 4666 
L 3578 4666 
L 3578 4134 
L 1259 4134 
L 1259 2753 
L 3481 2753 
L 3481 2222 
L 1259 2222 
L 1259 531 
L 3634 531 
L 3634 0 
L 628 0 
L 628 4666 
z
" transform="scale(0.015625)"/>
      <path id="DejaVuSans-4e" d="M 628 4666 
L 1478 4666 
L 3547 763 
L 3547 4666 
L 4159 4666 
L 4159 0 
L 3309 0 
L 1241 3903 
L 1241 0 
L 628 0 
L 628 4666 
z
" transform="scale(0.015625)"/>
     </defs>
     <use xlink:href="#DejaVuSans-53"/>
     <use xlink:href="#DejaVuSans-49" transform="translate(63.476562 0)"/>
     <use xlink:href="#DejaVuSans-52" transform="translate(92.96875 0)"/>
     <use xlink:href="#DejaVuSans-45" transform="translate(162.451172 0)"/>
     <use xlink:href="#DejaVuSans-4e" transform="translate(225.634766 0)"/>
    </g>
   </g>
   <g id="line2d_30">
    <path d="M 4.04 123.967837 
L 9.24 123.967837 
L 14.44 123.967837 
" style="fill: none; stroke: #eb6834; stroke-width: 1.5; stroke-linecap: round"/>
    <defs>
     <path id="mdda48d654b" d="M 0 2.4 
C 0.636487 2.4 1.246992 2.147121 1.697056 1.697056 
C 2.147121 1.246992 2.4 0.636487 2.4 0 
C 2.4 -0.636487 2.147121 -1.246992 1.697056 -1.697056 
C 1.246992 -2.147121 0.636487 -2.4 0 -2.4 
C -0.636487 -2.4 -1.246992 -2.147121 -1.697056 -1.697056 
C -2.147121 -1.246992 -2.4 -0.636487 -2.4 0 
C -2.4 0.636487 -2.147121 1.246992 -1.697056 1.697056 
C -1.246992 2.147121 -0.636487 2.4 0 2.4 
z
" style="stroke: #eb6834"/>
    </defs>
    <g>
     <use xlink:href="#mdda48d654b" x="9.24" y="123.967837" style="fill: #eb6834; stroke: #eb6834"/>
    </g>
   </g>
   <g id="text_10">
    <!-- FINER -->
    <g style="fill: #262626" transform="translate(19.64 126.242837) scale(0.065 -0.065)">
     <defs>
      <path id="DejaVuSans-46" d="M 628 4666 
L 3309 4666 
L 3309 4134 
L 1259 4134 
L 1259 2759 
L 3109 2759 
L 3109 2228 
L 1259 2228 
L 1259 0 
L 628 0 
L 628 4666 
z
" transform="scale(0.015625)"/>
     </defs>
     <use xlink:href="#DejaVuSans-46"/>
     <use xlink:href="#DejaVuSans-49" transform="translate(57.519531 0)"/>
     <use xlink:href="#DejaVuSans-4e" transform="translate(87.011719 0)"/>
     <use xlink:href="#DejaVuSans-45" transform="translate(161.816406 0)"/>
     <use xlink:href="#DejaVuSans-52" transform="translate(225 0)"/>
    </g>
   </g>
   <g id="line2d_31">
    <path d="M 52.170469 114.427056 
L 57.370469 114.427056 
L 62.570469 114.427056 
" style="fill: none; stroke: #1baf7a; stroke-width: 1.5; stroke-linecap: round"/>
    <defs>
     <path id="m5962b2b800" d="M 0 2.4 
C 0.636487 2.4 1.246992 2.147121 1.697056 1.697056 
C 2.147121 1.246992 2.4 0.636487 2.4 0 
C 2.4 -0.636487 2.147121 -1.246992 1.697056 -1.697056 
C 1.246992 -2.147121 0.636487 -2.4 0 -2.4 
C -0.636487 -2.4 -1.246992 -2.147121 -1.697056 -1.697056 
C -2.147121 -1.246992 -2.4 -0.636487 -2.4 0 
C -2.4 0.636487 -2.147121 1.246992 -1.697056 1.697056 
C -1.246992 2.147121 -0.636487 2.4 0 2.4 
z
" style="stroke: #1baf7a"/>
    </defs>
    <g>
     <use xlink:href="#m5962b2b800" x="57.370469" y="114.427056" style="fill: #1baf7a; stroke: #1baf7a"/>
    </g>
   </g>
   <g id="text_11">
    <!-- Instant-NGP -->
    <g style="fill: #262626" transform="translate(67.770469 116.702056) scale(0.065 -0.065)">
     <defs>
      <path id="DejaVuSans-2d" d="M 313 2009 
L 1997 2009 
L 1997 1497 
L 313 1497 
L 313 2009 
z
" transform="scale(0.015625)"/>
      <path id="DejaVuSans-47" d="M 3809 666 
L 3809 1919 
L 2778 1919 
L 2778 2438 
L 4434 2438 
L 4434 434 
Q 4069 175 3628 42 
Q 3188 -91 2688 -91 
Q 1594 -91 976 548 
Q 359 1188 359 2328 
Q 359 3472 976 4111 
Q 1594 4750 2688 4750 
Q 3144 4750 3555 4637 
Q 3966 4525 4313 4306 
L 4313 3634 
Q 3963 3931 3569 4081 
Q 3175 4231 2741 4231 
Q 1884 4231 1454 3753 
Q 1025 3275 1025 2328 
Q 1025 1384 1454 906 
Q 1884 428 2741 428 
Q 3075 428 3337 486 
Q 3600 544 3809 666 
z
" transform="scale(0.015625)"/>
      <path id="DejaVuSans-50" d="M 1259 4147 
L 1259 2394 
L 2053 2394 
Q 2494 2394 2734 2622 
Q 2975 2850 2975 3272 
Q 2975 3691 2734 3919 
Q 2494 4147 2053 4147 
L 1259 4147 
z
M 628 4666 
L 2053 4666 
Q 2838 4666 3239 4311 
Q 3641 3956 3641 3272 
Q 3641 2581 3239 2228 
Q 2838 1875 2053 1875 
L 1259 1875 
L 1259 0 
L 628 0 
L 628 4666 
z
" transform="scale(0.015625)"/>
     </defs>
     <use xlink:href="#DejaVuSans-49"/>
     <use xlink:href="#DejaVuSans-6e" transform="translate(29.492188 0)"/>
     <use xlink:href="#DejaVuSans-73" transform="translate(92.871094 0)"/>
     <use xlink:href="#DejaVuSans-74" transform="translate(144.970703 0)"/>
     <use xlink:href="#DejaVuSans-61" transform="translate(184.179688 0)"/>
     <use xlink:href="#DejaVuSans-6e" transform="translate(245.458984 0)"/>
     <use xlink:href="#DejaVuSans-74" transform="translate(308.837891 0)"/>
     <use xlink:href="#DejaVuSans-2d" transform="translate(348.046875 0)"/>
     <use xlink:href="#DejaVuSans-4e" transform="translate(384.130859 0)"/>
     <use xlink:href="#DejaVuSans-47" transform="translate(458.935547 0)"/>
     <use xlink:href="#DejaVuSans-50" transform="translate(536.425781 0)"/>
    </g>
   </g>
   <g id="line2d_32">
    <path d="M 52.170469 123.967837 
L 57.370469 123.967837 
L 62.570469 123.967837 
" style="fill: none; stroke: #4a3aa7; stroke-width: 1.5; stroke-linecap: round"/>
    <defs>
     <path id="mbd9daf4597" d="M 0 2.4 
C 0.636487 2.4 1.246992 2.147121 1.697056 1.697056 
C 2.147121 1.246992 2.4 0.636487 2.4 0 
C 2.4 -0.636487 2.147121 -1.246992 1.697056 -1.697056 
C 1.246992 -2.147121 0.636487 -2.4 0 -2.4 
C -0.636487 -2.4 -1.246992 -2.147121 -1.697056 -1.697056 
C -2.147121 -1.246992 -2.4 -0.636487 -2.4 0 
C -2.4 0.636487 -2.147121 1.246992 -1.697056 1.697056 
C -1.246992 2.147121 -0.636487 2.4 0 2.4 
z
" style="stroke: #4a3aa7"/>
    </defs>
    <g>
     <use xlink:href="#mbd9daf4597" x="57.370469" y="123.967837" style="fill: #4a3aa7; stroke: #4a3aa7"/>
    </g>
   </g>
   <g id="text_12">
    <!-- TensoRF -->
    <g style="fill: #262626" transform="translate(67.770469 126.242837) scale(0.065 -0.065)">
     <use xlink:href="#DejaVuSans-54"/>
     <use xlink:href="#DejaVuSans-65" transform="translate(44.083984 0)"/>
     <use xlink:href="#DejaVuSans-6e" transform="translate(105.607422 0)"/>
     <use xlink:href="#DejaVuSans-73" transform="translate(168.986328 0)"/>
     <use xlink:href="#DejaVuSans-6f" transform="translate(221.085938 0)"/>
     <use xlink:href="#DejaVuSans-52" transform="translate(282.267578 0)"/>
     <use xlink:href="#DejaVuSans-46" transform="translate(351.75 0)"/>
    </g>
   </g>
   <g id="line2d_33">
    <path d="M 119.556172 114.427056 
L 124.756172 114.427056 
L 129.956172 114.427056 
" style="fill: none; stroke: #2a78d6; stroke-width: 1.5; stroke-linecap: round"/>
    <defs>
     <path id="m9a5b81644d" d="M 0 2.4 
C 0.636487 2.4 1.246992 2.147121 1.697056 1.697056 
C 2.147121 1.246992 2.4 0.636487 2.4 0 
C 2.4 -0.636487 2.147121 -1.246992 1.697056 -1.697056 
C 1.246992 -2.147121 0.636487 -2.4 0 -2.4 
C -0.636487 -2.4 -1.246992 -2.147121 -1.697056 -1.697056 
C -2.147121 -1.246992 -2.4 -0.636487 -2.4 0 
C -2.4 0.636487 -2.147121 1.246992 -1.697056 1.697056 
C -1.246992 2.147121 -0.636487 2.4 0 2.4 
z
" style="stroke: #2a78d6"/>
    </defs>
    <g>
     <use xlink:href="#m9a5b81644d" x="124.756172" y="114.427056" style="fill: #2a78d6; stroke: #2a78d6"/>
    </g>
   </g>
   <g id="text_13">
    <!-- FUTON-sinc -->
    <g style="fill: #262626" transform="translate(135.156172 116.702056) scale(0.065 -0.065)">
     <defs>
      <path id="DejaVuSans-4f" d="M 2522 4238 
Q 1834 4238 1429 3725 
Q 1025 3213 1025 2328 
Q 1025 1447 1429 934 
Q 1834 422 2522 422 
Q 3209 422 3611 934 
Q 4013 1447 4013 2328 
Q 4013 3213 3611 3725 
Q 3209 4238 2522 4238 
z
M 2522 4750 
Q 3503 4750 4090 4092 
Q 4678 3434 4678 2328 
Q 4678 1225 4090 567 
Q 3503 -91 2522 -91 
Q 1538 -91 948 565 
Q 359 1222 359 2328 
Q 359 3434 948 4092 
Q 1538 4750 2522 4750 
z
" transform="scale(0.015625)"/>
      <path id="DejaVuSans-63" d="M 3122 3366 
L 3122 2828 
Q 2878 2963 2633 3030 
Q 2388 3097 2138 3097 
Q 1578 3097 1268 2742 
Q 959 2388 959 1747 
Q 959 1106 1268 751 
Q 1578 397 2138 397 
Q 2388 397 2633 464 
Q 2878 531 3122 666 
L 3122 134 
Q 2881 22 2623 -34 
Q 2366 -91 2075 -91 
Q 1284 -91 818 406 
Q 353 903 353 1747 
Q 353 2603 823 3093 
Q 1294 3584 2113 3584 
Q 2378 3584 2631 3529 
Q 2884 3475 3122 3366 
z
" transform="scale(0.015625)"/>
     </defs>
     <use xlink:href="#DejaVuSans-46"/>
     <use xlink:href="#DejaVuSans-55" transform="translate(57.519531 0)"/>
     <use xlink:href="#DejaVuSans-54" transform="translate(130.712891 0)"/>
     <use xlink:href="#DejaVuSans-4f" transform="translate(191.796875 0)"/>
     <use xlink:href="#DejaVuSans-4e" transform="translate(270.507812 0)"/>
     <use xlink:href="#DejaVuSans-2d" transform="translate(345.3125 0)"/>
     <use xlink:href="#DejaVuSans-73" transform="translate(381.396484 0)"/>
     <use xlink:href="#DejaVuSans-69" transform="translate(433.496094 0)"/>
     <use xlink:href="#DejaVuSans-6e" transform="translate(461.279297 0)"/>
     <use xlink:href="#DejaVuSans-63" transform="translate(524.658203 0)"/>
    </g>
   </g>
   <g id="line2d_34">
    <path d="M 119.556172 123.967837 
L 124.756172 123.967837 
L 129.956172 123.967837 
" style="fill: none; stroke-dasharray: 6,3; stroke-dashoffset: 0; stroke: #2a78d6; stroke-width: 1.5"/>
    <defs>
     <path id="mfc73a07628" d="M 0 2.4 
C 0.636487 2.4 1.246992 2.147121 1.697056 1.697056 
C 2.147121 1.246992 2.4 0.636487 2.4 0 
C 2.4 -0.636487 2.147121 -1.246992 1.697056 -1.697056 
C 1.246992 -2.147121 0.636487 -2.4 0 -2.4 
C -0.636487 -2.4 -1.246992 -2.147121 -1.697056 -1.697056 
C -2.147121 -1.246992 -2.4 -0.636487 -2.4 0 
C -2.4 0.636487 -2.147121 1.246992 -1.697056 1.697056 
C -1.246992 2.147121 -0.636487 2.4 0 2.4 
z
" style="stroke: #2a78d6"/>
    </defs>
    <g>
     <use xlink:href="#mfc73a07628" x="124.756172" y="123.967837" style="fill: #ffffff; stroke: #2a78d6"/>
    </g>
   </g>
   <g id="text_14">
    <!-- FUTON-lanczos -->
    <g style="fill: #262626" transform="translate(135.156172 126.242837) scale(0.065 -0.065)">
     <defs>
      <path id="DejaVuSans-6c" d="M 603 4863 
L 1178 4863 
L 1178 0 
L 603 0 
L 603 4863 
z
" transform="scale(0.015625)"/>
      <path id="DejaVuSans-7a" d="M 353 3500 
L 3084 3500 
L 3084 2975 
L 922 459 
L 3084 459 
L 3084 0 
L 275 0 
L 275 525 
L 2438 3041 
L 353 3041 
L 353 3500 
z
" transform="scale(0.015625)"/>
     </defs>
     <use xlink:href="#DejaVuSans-46"/>
     <use xlink:href="#DejaVuSans-55" transform="translate(57.519531 0)"/>
     <use xlink:href="#DejaVuSans-54" transform="translate(130.712891 0)"/>
     <use xlink:href="#DejaVuSans-4f" transform="translate(191.796875 0)"/>
     <use xlink:href="#DejaVuSans-4e" transform="translate(270.507812 0)"/>
     <use xlink:href="#DejaVuSans-2d" transform="translate(345.3125 0)"/>
     <use xlink:href="#DejaVuSans-6c" transform="translate(381.396484 0)"/>
     <use xlink:href="#DejaVuSans-61" transform="translate(409.179688 0)"/>
     <use xlink:href="#DejaVuSans-6e" transform="translate(470.458984 0)"/>
     <use xlink:href="#DejaVuSans-63" transform="translate(533.837891 0)"/>
     <use xlink:href="#DejaVuSans-7a" transform="translate(588.818359 0)"/>
     <use xlink:href="#DejaVuSans-6f" transform="translate(641.308594 0)"/>
     <use xlink:href="#DejaVuSans-73" transform="translate(702.490234 0)"/>
    </g>
   </g>
   <g id="line2d_35">
    <defs>
     <path id="m70506005e5" d="M 0 2.4 
C 0.636487 2.4 1.246992 2.147121 1.697056 1.697056 
C 2.147121 1.246992 2.4 0.636487 2.4 0 
C 2.4 -0.636487 2.147121 -1.246992 1.697056 -1.697056 
C 1.246992 -2.147121 0.636487 -2.4 0 -2.4 
C -0.636487 -2.4 -1.246992 -2.147121 -1.697056 -1.697056 
C -2.147121 -1.246992 -2.4 -0.636487 -2.4 0 
C -2.4 0.636487 -2.147121 1.246992 -1.697056 1.697056 
C -1.246992 2.147121 -0.636487 2.4 0 2.4 
z
" style="stroke: #b2b2b2"/>
    </defs>
    <g>
     <use xlink:href="#m70506005e5" x="202.40375" y="114.427056" style="fill: #b2b2b2; stroke: #b2b2b2"/>
    </g>
   </g>
   <g id="text_15">
    <!-- Other models -->
    <g style="fill: #262626" transform="translate(212.80375 116.702056) scale(0.065 -0.065)">
     <defs>
      <path id="DejaVuSans-68" d="M 3513 2113 
L 3513 0 
L 2938 0 
L 2938 2094 
Q 2938 2591 2744 2837 
Q 2550 3084 2163 3084 
Q 1697 3084 1428 2787 
Q 1159 2491 1159 1978 
L 1159 0 
L 581 0 
L 581 4863 
L 1159 4863 
L 1159 2956 
Q 1366 3272 1645 3428 
Q 1925 3584 2291 3584 
Q 2894 3584 3203 3211 
Q 3513 2838 3513 2113 
z
" transform="scale(0.015625)"/>
      <path id="DejaVuSans-64" d="M 2906 2969 
L 2906 4863 
L 3481 4863 
L 3481 0 
L 2906 0 
L 2906 525 
Q 2725 213 2448 61 
Q 2172 -91 1784 -91 
Q 1150 -91 751 415 
Q 353 922 353 1747 
Q 353 2572 751 3078 
Q 1150 3584 1784 3584 
Q 2172 3584 2448 3432 
Q 2725 3281 2906 2969 
z
M 947 1747 
Q 947 1113 1208 752 
Q 1469 391 1925 391 
Q 2381 391 2643 752 
Q 2906 1113 2906 1747 
Q 2906 2381 2643 2742 
Q 2381 3103 1925 3103 
Q 1469 3103 1208 2742 
Q 947 2381 947 1747 
z
" transform="scale(0.015625)"/>
     </defs>
     <use xlink:href="#DejaVuSans-4f"/>
     <use xlink:href="#DejaVuSans-74" transform="translate(78.710938 0)"/>
     <use xlink:href="#DejaVuSans-68" transform="translate(117.919922 0)"/>
     <use xlink:href="#DejaVuSans-65" transform="translate(181.298828 0)"/>
     <use xlink:href="#DejaVuSans-72" transform="translate(242.822266 0)"/>
     <use xlink:href="#DejaVuSans-20" transform="translate(283.935547 0)"/>
     <use xlink:href="#DejaVuSans-6d" transform="translate(315.722656 0)"/>
     <use xlink:href="#DejaVuSans-6f" transform="translate(413.134766 0)"/>
     <use xlink:href="#DejaVuSans-64" transform="translate(474.316406 0)"/>
     <use xlink:href="#DejaVuSans-65" transform="translate(537.792969 0)"/>
     <use xlink:href="#DejaVuSans-6c" transform="translate(599.316406 0)"/>
     <use xlink:href="#DejaVuSans-73" transform="translate(627.099609 0)"/>
    </g>
   </g>
  </g>
 </g>
 <defs>
  <clipPath id="p7fcdb683a3">
   <rect x="98.439654" y="3.358538" width="111.856082" height="71.175376"/>
  </clipPath>
 </defs>
</svg>
