<?xml version="1.0" encoding="utf-8" standalone="no"?>
<!DOCTYPE svg PUBLIC "-//W3C//DTD SVG 1.1//EN"
  "http://www.w3.org/Graphics/SVG/1.1/DTD/svg11.dtd">
<svg xmlns:xlink="http://www.w3.org/1999/xlink" width="544.07952pt" height="158.37976pt" viewBox="0 0 544.07952 158.37976" xmlns="http://www.w3.org/2000/svg" version="1.1">
 <metadata>
  <rdf:RDF xmlns:dc="http://purl.org/dc/elements/1.1/" xmlns:cc="http://creativecommons.org/ns#" xmlns:rdf="http://www.w3.org/1999/02/22-rdf-syntax-ns#">
   <cc:Work>
    <dc:type rdf:resource="http://purl.org/dc/dcmitype/StillImage"/>
    <dc:date>2026-10-04T23:07:07.153642</dc:date>
    <dc:format>image/svg+xml</dc:format>
    <dc:creator>
     <cc:Agent>
      <dc:title>Matplotlib v3.10.8, https://matplotlib.org/</dc:title>
     </cc:Agent>
    </dc:creator>
   </cc:Work>
  </rdf:RDF>
 </metadata>
 <defs>
  <style type="text/css">*{stroke-linejoin: round; stroke-linecap: butt}</style>
 </defs>
 <g id="figure_1">
  <g id="patch_1">
   <path d="M 0 158.37976 
L 544.07952 158.37976 
L 544.07952 0 
L 0 0 
z
" style="fill: #ffffff"/>
  </g>
  <g id="axes_1">
   <g id="patch_2">
    <path d="M 34.870625 108.35404 
L 177.83952 108.35404 
L 177.83952 4.859297 
L 34.870625 4.859297 
z
" style="fill: #ffffff"/>
   </g>
   <g id="matplotlib.axis_1">
    <g id="xtick_1">
     <g id="line2d_1">
      <path d="M 53.538707 108.35404 
L 53.538707 4.859297 
" clip-path="url(#pb88153cd18)" style="fill: none; stroke: #cccccc; stroke-opacity: 0.25; stroke-width: 0.5; stroke-linecap: round"/>
     </g>
     <g id="line2d_2">
      <defs>
       <path id="m60fb3d7630" d="M 0 0 
L 0 4.8 
" style="stroke: #262626"/>
      </defs>
      <g>
       <use xlink:href="#m60fb3d7630" x="53.538707" y="108.35404" style="fill: #262626; stroke: #262626"/>
      </g>
     </g>
     <g id="text_1">
      <!-- 10 -->
      <g style="fill: #262626" transform="translate(47.812457 123.492634) scale(0.09 -0.09)">
       <defs>
        <path id="DejaVuSans-31" d="M 794 531 
L 1825 531 
L 1825 4091 
L 703 3866 
L 703 4441 
L 1819 4666 
L 2450 4666 
L 2450 531 
L 3481 531 
L 3481 0 
L 794 0 
L 794 531 
z
" transform="scale(0.015625)"/>
        <path id="DejaVuSans-30" d="M 2034 4250 
Q 1547 4250 1301 3770 
Q 1056 3291 1056 2328 
Q 1056 1369 1301 889 
Q 1547 409 2034 409 
Q 2525 409 2770 889 
Q 3016 1369 3016 2328 
Q 3016 3291 2770 3770 
Q 2525 4250 2034 4250 
z
M 2034 4750 
Q 2819 4750 3233 4129 
Q 3647 3509 3647 2328 
Q 3647 1150 3233 529 
Q 2819 -91 2034 -91 
Q 1250 -91 836 529 
Q 422 1150 422 2328 
Q 422 3509 836 4129 
Q 1250 4750 2034 4750 
z
" transform="scale(0.015625)"/>
       </defs>
       <use xlink:href="#DejaVuSans-31"/>
       <use xlink:href="#DejaVuSans-30" transform="translate(63.623047 0)"/>
      </g>
     </g>
    </g>
    <g id="xtick_2">
     <g id="line2d_3">
      <path d="M 84.576323 108.35404 
L 84.576323 4.859297 
" clip-path="url(#pb88153cd18)" style="fill: none; stroke: #cccccc; stroke-opacity: 0.25; stroke-width: 0.5; stroke-linecap: round"/>
     </g>
     <g id="line2d_4">
      <g>
       <use xlink:href="#m60fb3d7630" x="84.576323" y="108.35404" style="fill: #262626; stroke: #262626"/>
      </g>
     </g>
     <g id="text_2">
      <!-- 20 -->
      <g style="fill: #262626" transform="translate(78.850073 123.492634) scale(0.09 -0.09)">
       <defs>
        <path id="DejaVuSans-32" d="M 1228 531 
L 3431 531 
L 3431 0 
L 469 0 
L 469 531 
Q 828 903 1448 1529 
Q 2069 2156 2228 2338 
Q 2531 2678 2651 2914 
Q 2772 3150 2772 3378 
Q 2772 3750 2511 3984 
Q 2250 4219 1831 4219 
Q 1534 4219 1204 4116 
Q 875 4013 500 3803 
L 500 4441 
Q 881 4594 1212 4672 
Q 1544 4750 1819 4750 
Q 2544 4750 2975 4387 
Q 3406 4025 3406 3419 
Q 3406 3131 3298 2873 
Q 3191 2616 2906 2266 
Q 2828 2175 2409 1742 
Q 1991 1309 1228 531 
z
" transform="scale(0.015625)"/>
       </defs>
       <use xlink:href="#DejaVuSans-32"/>
       <use xlink:href="#DejaVuSans-30" transform="translate(63.623047 0)"/>
      </g>
     </g>
    </g>
    <g id="xtick_3">
     <g id="line2d_5">
      <path d="M 102.732164 108.35404 
L 102.732164 4.859297 
" clip-path="url(#pb88153cd18)" style="fill: none; stroke: #cccccc; stroke-opacity: 0.25; stroke-width: 0.5; stroke-linecap: round"/>
     </g>
     <g id="line2d_6">
      <g>
       <use xlink:href="#m60fb3d7630" x="102.732164" y="108.35404" style="fill: #262626; stroke: #262626"/>
      </g>
     </g>
     <g id="text_3">
      <!-- 30 -->
      <g style="fill: #262626" transform="translate(97.005914 123.492634) scale(0.09 -0.09)">
       <defs>
        <path id="DejaVuSans-33" d="M 2597 2516 
Q 3050 2419 3304 2112 
Q 3559 1806 3559 1356 
Q 3559 666 3084 287 
Q 2609 -91 1734 -91 
Q 1441 -91 1130 -33 
Q 819 25 488 141 
L 488 750 
Q 750 597 1062 519 
Q 1375 441 1716 441 
Q 2309 441 2620 675 
Q 2931 909 2931 1356 
Q 2931 1769 2642 2001 
Q 2353 2234 1838 2234 
L 1294 2234 
L 1294 2753 
L 1863 2753 
Q 2328 2753 2575 2939 
Q 2822 3125 2822 3475 
Q 2822 3834 2567 4026 
Q 2313 4219 1838 4219 
Q 1578 4219 1281 4162 
Q 984 4106 628 3988 
L 628 4550 
Q 988 4650 1302 4700 
Q 1616 4750 1894 4750 
Q 2613 4750 3031 4423 
Q 3450 4097 3450 3541 
Q 3450 3153 3228 2886 
Q 3006 2619 2597 2516 
z
" transform="scale(0.015625)"/>
       </defs>
       <use xlink:href="#DejaVuSans-33"/>
       <use xlink:href="#DejaVuSans-30" transform="translate(63.623047 0)"/>
      </g>
     </g>
    </g>
    <g id="xtick_4">
     <g id="line2d_7">
      <path d="M 125.60582 108.35404 
L 125.60582 4.859297 
" clip-path="url(#pb88153cd18)" style="fill: none; stroke: #cccccc; stroke-opacity: 0.25; stroke-width: 0.5; stroke-linecap: round"/>
     </g>
     <g id="line2d_8">
      <g>
       <use xlink:href="#m60fb3d7630" x="125.60582" y="108.35404" style="fill: #262626; stroke: #262626"/>
      </g>
     </g>
     <g id="text_4">
      <!-- 50 -->
      <g style="fill: #262626" transform="translate(119.87957 123.492634) scale(0.09 -0.09)">
       <defs>
        <path id="DejaVuSans-35" d="M 691 4666 
L 3169 4666 
L 3169 4134 
L 1269 4134 
L 1269 2991 
Q 1406 3038 1543 3061 
Q 1681 3084 1819 3084 
Q 2600 3084 3056 2656 
Q 3513 2228 3513 1497 
Q 3513 744 3044 326 
Q 2575 -91 1722 -91 
Q 1428 -91 1123 -41 
Q 819 9 494 109 
L 494 744 
Q 775 591 1075 516 
Q 1375 441 1709 441 
Q 2250 441 2565 725 
Q 2881 1009 2881 1497 
Q 2881 1984 2565 2268 
Q 2250 2553 1709 2553 
Q 1456 2553 1204 2497 
Q 953 2441 691 2322 
L 691 4666 
z
" transform="scale(0.015625)"/>
       </defs>
       <use xlink:href="#DejaVuSans-35"/>
       <use xlink:href="#DejaVuSans-30" transform="translate(63.623047 0)"/>
      </g>
     </g>
    </g>
    <g id="xtick_5">
     <g id="line2d_9">
      <path d="M 156.643436 108.35404 
L 156.643436 4.859297 
" clip-path="url(#pb88153cd18)" style="fill: none; stroke: #cccccc; stroke-opacity: 0.25; stroke-width: 0.5; stroke-linecap: round"/>
     </g>
     <g id="line2d_10">
      <g>
       <use xlink:href="#m60fb3d7630" x="156.643436" y="108.35404" style="fill: #262626; stroke: #262626"/>
      </g>
     </g>
     <g id="text_5">
      <!-- 100 -->
      <g style="fill: #262626" transform="translate(148.054061 123.492634) scale(0.09 -0.09)">
       <use xlink:href="#DejaVuSans-31"/>
       <use xlink:href="#DejaVuSans-30" transform="translate(63.623047 0)"/>
       <use xlink:href="#DejaVuSans-30" transform="translate(127.246094 0)"/>
      </g>
     </g>
    </g>
    <g id="xtick_6">
     <g id="line2d_11">
      <defs>
       <path id="mad7f7b75ca" d="M 0 0 
L 0 3.2 
" style="stroke: #262626; stroke-width: 0.8"/>
      </defs>
      <g>
       <use xlink:href="#mad7f7b75ca" x="37.567582" y="108.35404" style="fill: #262626; stroke: #262626; stroke-width: 0.8"/>
      </g>
     </g>
    </g>
    <g id="xtick_7">
     <g id="line2d_12">
      <g>
       <use xlink:href="#mad7f7b75ca" x="43.546826" y="108.35404" style="fill: #262626; stroke: #262626; stroke-width: 0.8"/>
      </g>
     </g>
    </g>
    <g id="xtick_8">
     <g id="line2d_13">
      <g>
       <use xlink:href="#mad7f7b75ca" x="48.820893" y="108.35404" style="fill: #262626; stroke: #262626; stroke-width: 0.8"/>
      </g>
     </g>
    </g>
    <g id="xtick_9">
     <g id="line2d_14">
      <g>
       <use xlink:href="#mad7f7b75ca" x="115.613939" y="108.35404" style="fill: #262626; stroke: #262626; stroke-width: 0.8"/>
      </g>
     </g>
    </g>
    <g id="xtick_10">
     <g id="line2d_15">
      <g>
       <use xlink:href="#mad7f7b75ca" x="133.76978" y="108.35404" style="fill: #262626; stroke: #262626; stroke-width: 0.8"/>
      </g>
     </g>
    </g>
    <g id="xtick_11">
     <g id="line2d_16">
      <g>
       <use xlink:href="#mad7f7b75ca" x="140.672311" y="108.35404" style="fill: #262626; stroke: #262626; stroke-width: 0.8"/>
      </g>
     </g>
    </g>
    <g id="xtick_12">
     <g id="line2d_17">
      <g>
       <use xlink:href="#mad7f7b75ca" x="146.651555" y="108.35404" style="fill: #262626; stroke: #262626; stroke-width: 0.8"/>
      </g>
     </g>
    </g>
    <g id="xtick_13">
     <g id="line2d_18">
      <g>
       <use xlink:href="#mad7f7b75ca" x="151.925622" y="108.35404" style="fill: #262626; stroke: #262626; stroke-width: 0.8"/>
      </g>
     </g>
    </g>
    <g id="text_6">
     <!-- Training time (s) -->
     <g style="fill: #262626" transform="translate(65.648822 136.96279) scale(0.1 -0.1)">
      <defs>
       <path id="DejaVuSans-54" d="M -19 4666 
L 3928 4666 
L 3928 4134 
L 2272 4134 
L 2272 0 
L 1638 0 
L 1638 4134 
L -19 4134 
L -19 4666 
z
" transform="scale(0.015625)"/>
       <path id="DejaVuSans-72" d="M 2631 2963 
Q 2534 3019 2420 3045 
Q 2306 3072 2169 3072 
Q 1681 3072 1420 2755 
Q 1159 2438 1159 1844 
L 1159 0 
L 581 0 
L 581 3500 
L 1159 3500 
L 1159 2956 
Q 1341 3275 1631 3429 
Q 1922 3584 2338 3584 
Q 2397 3584 2469 3576 
Q 2541 3569 2628 3553 
L 2631 2963 
z
" transform="scale(0.015625)"/>
       <path id="DejaVuSans-61" d="M 2194 1759 
Q 1497 1759 1228 1600 
Q 959 1441 959 1056 
Q 959 750 1161 570 
Q 1363 391 1709 391 
Q 2188 391 2477 730 
Q 2766 1069 2766 1631 
L 2766 1759 
L 2194 1759 
z
M 3341 1997 
L 3341 0 
L 2766 0 
L 2766 531 
Q 2569 213 2275 61 
Q 1981 -91 1556 -91 
Q 1019 -91 701 211 
Q 384 513 384 1019 
Q 384 1609 779 1909 
Q 1175 2209 1959 2209 
L 2766 2209 
L 2766 2266 
Q 2766 2663 2505 2880 
Q 2244 3097 1772 3097 
Q 1472 3097 1187 3025 
Q 903 2953 641 2809 
L 641 3341 
Q 956 3463 1253 3523 
Q 1550 3584 1831 3584 
Q 2591 3584 2966 3190 
Q 3341 2797 3341 1997 
z
" transform="scale(0.015625)"/>
       <path id="DejaVuSans-69" d="M 603 3500 
L 1178 3500 
L 1178 0 
L 603 0 
L 603 3500 
z
M 603 4863 
L 1178 4863 
L 1178 4134 
L 603 4134 
L 603 4863 
z
" transform="scale(0.015625)"/>
       <path id="DejaVuSans-6e" d="M 3513 2113 
L 3513 0 
L 2938 0 
L 2938 2094 
Q 2938 2591 2744 2837 
Q 2550 3084 2163 3084 
Q 1697 3084 1428 2787 
Q 1159 2491 1159 1978 
L 1159 0 
L 581 0 
L 581 3500 
L 1159 3500 
L 1159 2956 
Q 1366 3272 1645 3428 
Q 1925 3584 2291 3584 
Q 2894 3584 3203 3211 
Q 3513 2838 3513 2113 
z
" transform="scale(0.015625)"/>
       <path id="DejaVuSans-67" d="M 2906 1791 
Q 2906 2416 2648 2759 
Q 2391 3103 1925 3103 
Q 1463 3103 1205 2759 
Q 947 2416 947 1791 
Q 947 1169 1205 825 
Q 1463 481 1925 481 
Q 2391 481 2648 825 
Q 2906 1169 2906 1791 
z
M 3481 434 
Q 3481 -459 3084 -895 
Q 2688 -1331 1869 -1331 
Q 1566 -1331 1297 -1286 
Q 1028 -1241 775 -1147 
L 775 -588 
Q 1028 -725 1275 -790 
Q 1522 -856 1778 -856 
Q 2344 -856 2625 -561 
Q 2906 -266 2906 331 
L 2906 616 
Q 2728 306 2450 153 
Q 2172 0 1784 0 
Q 1141 0 747 490 
Q 353 981 353 1791 
Q 353 2603 747 3093 
Q 1141 3584 1784 3584 
Q 2172 3584 2450 3431 
Q 2728 3278 2906 2969 
L 2906 3500 
L 3481 3500 
L 3481 434 
z
" transform="scale(0.015625)"/>
       <path id="DejaVuSans-20" transform="scale(0.015625)"/>
       <path id="DejaVuSans-74" d="M 1172 4494 
L 1172 3500 
L 2356 3500 
L 2356 3053 
L 1172 3053 
L 1172 1153 
Q 1172 725 1289 603 
Q 1406 481 1766 481 
L 2356 481 
L 2356 0 
L 1766 0 
Q 1100 0 847 248 
Q 594 497 594 1153 
L 594 3053 
L 172 3053 
L 172 3500 
L 594 3500 
L 594 4494 
L 1172 4494 
z
" transform="scale(0.015625)"/>
       <path id="DejaVuSans-6d" d="M 3328 2828 
Q 3544 3216 3844 3400 
Q 4144 3584 4550 3584 
Q 5097 3584 5394 3201 
Q 5691 2819 5691 2113 
L 5691 0 
L 5113 0 
L 5113 2094 
Q 5113 2597 4934 2840 
Q 4756 3084 4391 3084 
Q 3944 3084 3684 2787 
Q 3425 2491 3425 1978 
L 3425 0 
L 2847 0 
L 2847 2094 
Q 2847 2600 2669 2842 
Q 2491 3084 2119 3084 
Q 1678 3084 1418 2786 
Q 1159 2488 1159 1978 
L 1159 0 
L 581 0 
L 581 3500 
L 1159 3500 
L 1159 2956 
Q 1356 3278 1631 3431 
Q 1906 3584 2284 3584 
Q 2666 3584 2933 3390 
Q 3200 3197 3328 2828 
z
" transform="scale(0.015625)"/>
       <path id="DejaVuSans-65" d="M 3597 1894 
L 3597 1613 
L 953 1613 
Q 991 1019 1311 708 
Q 1631 397 2203 397 
Q 2534 397 2845 478 
Q 3156 559 3463 722 
L 3463 178 
Q 3153 47 2828 -22 
Q 2503 -91 2169 -91 
Q 1331 -91 842 396 
Q 353 884 353 1716 
Q 353 2575 817 3079 
Q 1281 3584 2069 3584 
Q 2775 3584 3186 3129 
Q 3597 2675 3597 1894 
z
M 3022 2063 
Q 3016 2534 2758 2815 
Q 2500 3097 2075 3097 
Q 1594 3097 1305 2825 
Q 1016 2553 972 2059 
L 3022 2063 
z
" transform="scale(0.015625)"/>
       <path id="DejaVuSans-28" d="M 1984 4856 
Q 1566 4138 1362 3434 
Q 1159 2731 1159 2009 
Q 1159 1288 1364 580 
Q 1569 -128 1984 -844 
L 1484 -844 
Q 1016 -109 783 600 
Q 550 1309 550 2009 
Q 550 2706 781 3412 
Q 1013 4119 1484 4856 
L 1984 4856 
z
" transform="scale(0.015625)"/>
       <path id="DejaVuSans-73" d="M 2834 3397 
L 2834 2853 
Q 2591 2978 2328 3040 
Q 2066 3103 1784 3103 
Q 1356 3103 1142 2972 
Q 928 2841 928 2578 
Q 928 2378 1081 2264 
Q 1234 2150 1697 2047 
L 1894 2003 
Q 2506 1872 2764 1633 
Q 3022 1394 3022 966 
Q 3022 478 2636 193 
Q 2250 -91 1575 -91 
Q 1294 -91 989 -36 
Q 684 19 347 128 
L 347 722 
Q 666 556 975 473 
Q 1284 391 1588 391 
Q 1994 391 2212 530 
Q 2431 669 2431 922 
Q 2431 1156 2273 1281 
Q 2116 1406 1581 1522 
L 1381 1569 
Q 847 1681 609 1914 
Q 372 2147 372 2553 
Q 372 3047 722 3315 
Q 1072 3584 1716 3584 
Q 2034 3584 2315 3537 
Q 2597 3491 2834 3397 
z
" transform="scale(0.015625)"/>
       <path id="DejaVuSans-29" d="M 513 4856 
L 1013 4856 
Q 1481 4119 1714 3412 
Q 1947 2706 1947 2009 
Q 1947 1309 1714 600 
Q 1481 -109 1013 -844 
L 513 -844 
Q 928 -128 1133 580 
Q 1338 1288 1338 2009 
Q 1338 2731 1133 3434 
Q 928 4138 513 4856 
z
" transform="scale(0.015625)"/>
      </defs>
      <use xlink:href="#DejaVuSans-54"/>
      <use xlink:href="#DejaVuSans-72" transform="translate(46.333984 0)"/>
      <use xlink:href="#DejaVuSans-61" transform="translate(87.447266 0)"/>
      <use xlink:href="#DejaVuSans-69" transform="translate(148.726562 0)"/>
      <use xlink:href="#DejaVuSans-6e" transform="translate(176.509766 0)"/>
      <use xlink:href="#DejaVuSans-69" transform="translate(239.888672 0)"/>
      <use xlink:href="#DejaVuSans-6e" transform="translate(267.671875 0)"/>
      <use xlink:href="#DejaVuSans-67" transform="translate(331.050781 0)"/>
      <use xlink:href="#DejaVuSans-20" transform="translate(394.527344 0)"/>
      <use xlink:href="#DejaVuSans-74" transform="translate(426.314453 0)"/>
      <use xlink:href="#DejaVuSans-69" transform="translate(465.523438 0)"/>
      <use xlink:href="#DejaVuSans-6d" transform="translate(493.306641 0)"/>
      <use xlink:href="#DejaVuSans-65" transform="translate(590.71875 0)"/>
      <use xlink:href="#DejaVuSans-20" transform="translate(652.242188 0)"/>
      <use xlink:href="#DejaVuSans-28" transform="translate(684.029297 0)"/>
      <use xlink:href="#DejaVuSans-73" transform="translate(723.042969 0)"/>
      <use xlink:href="#DejaVuSans-29" transform="translate(775.142578 0)"/>
     </g>
    </g>
   </g>
   <g id="matplotlib.axis_2">
    <g id="ytick_1">
     <g id="line2d_19">
      <path d="M 34.870625 108.35404 
L 177.83952 108.35404 
" clip-path="url(#pb88153cd18)" style="fill: none; stroke: #cccccc; stroke-opacity: 0.25; stroke-width: 0.5; stroke-linecap: round"/>
     </g>
     <g id="line2d_20">
      <defs>
       <path id="m76e43aa92f" d="M 0 0 
L -4.8 0 
" style="stroke: #262626"/>
      </defs>
      <g>
       <use xlink:href="#m76e43aa92f" x="34.870625" y="108.35404" style="fill: #262626; stroke: #262626"/>
      </g>
     </g>
     <g id="text_7">
      <!-- 26 -->
      <g style="fill: #262626" transform="translate(15.118125 111.773337) scale(0.09 -0.09)">
       <defs>
        <path id="DejaVuSans-36" d="M 2113 2584 
Q 1688 2584 1439 2293 
Q 1191 2003 1191 1497 
Q 1191 994 1439 701 
Q 1688 409 2113 409 
Q 2538 409 2786 701 
Q 3034 994 3034 1497 
Q 3034 2003 2786 2293 
Q 2538 2584 2113 2584 
z
M 3366 4563 
L 3366 3988 
Q 3128 4100 2886 4159 
Q 2644 4219 2406 4219 
Q 1781 4219 1451 3797 
Q 1122 3375 1075 2522 
Q 1259 2794 1537 2939 
Q 1816 3084 2150 3084 
Q 2853 3084 3261 2657 
Q 3669 2231 3669 1497 
Q 3669 778 3244 343 
Q 2819 -91 2113 -91 
Q 1303 -91 875 529 
Q 447 1150 447 2328 
Q 447 3434 972 4092 
Q 1497 4750 2381 4750 
Q 2619 4750 2861 4703 
Q 3103 4656 3366 4563 
z
" transform="scale(0.015625)"/>
       </defs>
       <use xlink:href="#DejaVuSans-32"/>
       <use xlink:href="#DejaVuSans-36" transform="translate(63.623047 0)"/>
      </g>
     </g>
    </g>
    <g id="ytick_2">
     <g id="line2d_21">
      <path d="M 34.870625 73.855792 
L 177.83952 73.855792 
" clip-path="url(#pb88153cd18)" style="fill: none; stroke: #cccccc; stroke-opacity: 0.25; stroke-width: 0.5; stroke-linecap: round"/>
     </g>
     <g id="line2d_22">
      <g>
       <use xlink:href="#m76e43aa92f" x="34.870625" y="73.855792" style="fill: #262626; stroke: #262626"/>
      </g>
     </g>
     <g id="text_8">
      <!-- 27 -->
      <g style="fill: #262626" transform="translate(15.118125 77.275089) scale(0.09 -0.09)">
       <defs>
        <path id="DejaVuSans-37" d="M 525 4666 
L 3525 4666 
L 3525 4397 
L 1831 0 
L 1172 0 
L 2766 4134 
L 525 4134 
L 525 4666 
z
" transform="scale(0.015625)"/>
       </defs>
       <use xlink:href="#DejaVuSans-32"/>
       <use xlink:href="#DejaVuSans-37" transform="translate(63.623047 0)"/>
      </g>
     </g>
    </g>
    <g id="ytick_3">
     <g id="line2d_23">
      <path d="M 34.870625 39.357545 
L 177.83952 39.357545 
" clip-path="url(#pb88153cd18)" style="fill: none; stroke: #cccccc; stroke-opacity: 0.25; stroke-width: 0.5; stroke-linecap: round"/>
     </g>
     <g id="line2d_24">
      <g>
       <use xlink:href="#m76e43aa92f" x="34.870625" y="39.357545" style="fill: #262626; stroke: #262626"/>
      </g>
     </g>
     <g id="text_9">
      <!-- 28 -->
      <g style="fill: #262626" transform="translate(15.118125 42.776841) scale(0.09 -0.09)">
       <defs>
        <path id="DejaVuSans-38" d="M 2034 2216 
Q 1584 2216 1326 1975 
Q 1069 1734 1069 1313 
Q 1069 891 1326 650 
Q 1584 409 2034 409 
Q 2484 409 2743 651 
Q 3003 894 3003 1313 
Q 3003 1734 2745 1975 
Q 2488 2216 2034 2216 
z
M 1403 2484 
Q 997 2584 770 2862 
Q 544 3141 544 3541 
Q 544 4100 942 4425 
Q 1341 4750 2034 4750 
Q 2731 4750 3128 4425 
Q 3525 4100 3525 3541 
Q 3525 3141 3298 2862 
Q 3072 2584 2669 2484 
Q 3125 2378 3379 2068 
Q 3634 1759 3634 1313 
Q 3634 634 3220 271 
Q 2806 -91 2034 -91 
Q 1263 -91 848 271 
Q 434 634 434 1313 
Q 434 1759 690 2068 
Q 947 2378 1403 2484 
z
M 1172 3481 
Q 1172 3119 1398 2916 
Q 1625 2713 2034 2713 
Q 2441 2713 2670 2916 
Q 2900 3119 2900 3481 
Q 2900 3844 2670 4047 
Q 2441 4250 2034 4250 
Q 1625 4250 1398 4047 
Q 1172 3844 1172 3481 
z
" transform="scale(0.015625)"/>
       </defs>
       <use xlink:href="#DejaVuSans-32"/>
       <use xlink:href="#DejaVuSans-38" transform="translate(63.623047 0)"/>
      </g>
     </g>
    </g>
    <g id="ytick_4">
     <g id="line2d_25">
      <path d="M 34.870625 4.859297 
L 177.83952 4.859297 
" clip-path="url(#pb88153cd18)" style="fill: none; stroke: #cccccc; stroke-opacity: 0.25; stroke-width: 0.5; stroke-linecap: round"/>
     </g>
     <g id="line2d_26">
      <g>
       <use xlink:href="#m76e43aa92f" x="34.870625" y="4.859297" style="fill: #262626; stroke: #262626"/>
      </g>
     </g>
     <g id="text_10">
      <!-- 29 -->
      <g style="fill: #262626" transform="translate(15.118125 8.278594) scale(0.09 -0.09)">
       <defs>
        <path id="DejaVuSans-39" d="M 703 97 
L 703 672 
Q 941 559 1184 500 
Q 1428 441 1663 441 
Q 2288 441 2617 861 
Q 2947 1281 2994 2138 
Q 2813 1869 2534 1725 
Q 2256 1581 1919 1581 
Q 1219 1581 811 2004 
Q 403 2428 403 3163 
Q 403 3881 828 4315 
Q 1253 4750 1959 4750 
Q 2769 4750 3195 4129 
Q 3622 3509 3622 2328 
Q 3622 1225 3098 567 
Q 2575 -91 1691 -91 
Q 1453 -91 1209 -44 
Q 966 3 703 97 
z
M 1959 2075 
Q 2384 2075 2632 2365 
Q 2881 2656 2881 3163 
Q 2881 3666 2632 3958 
Q 2384 4250 1959 4250 
Q 1534 4250 1286 3958 
Q 1038 3666 1038 3163 
Q 1038 2656 1286 2365 
Q 1534 2075 1959 2075 
z
" transform="scale(0.015625)"/>
       </defs>
       <use xlink:href="#DejaVuSans-32"/>
       <use xlink:href="#DejaVuSans-39" transform="translate(63.623047 0)"/>
      </g>
     </g>
    </g>
    <g id="text_11">
     <!-- PSNR (dB) -->
     <g style="fill: #262626" transform="translate(9.038438 82.105887) rotate(-90) scale(0.1 -0.1)">
      <defs>
       <path id="DejaVuSans-50" d="M 1259 4147 
L 1259 2394 
L 2053 2394 
Q 2494 2394 2734 2622 
Q 2975 2850 2975 3272 
Q 2975 3691 2734 3919 
Q 2494 4147 2053 4147 
L 1259 4147 
z
M 628 4666 
L 2053 4666 
Q 2838 4666 3239 4311 
Q 3641 3956 3641 3272 
Q 3641 2581 3239 2228 
Q 2838 1875 2053 1875 
L 1259 1875 
L 1259 0 
L 628 0 
L 628 4666 
z
" transform="scale(0.015625)"/>
       <path id="DejaVuSans-53" d="M 3425 4513 
L 3425 3897 
Q 3066 4069 2747 4153 
Q 2428 4238 2131 4238 
Q 1616 4238 1336 4038 
Q 1056 3838 1056 3469 
Q 1056 3159 1242 3001 
Q 1428 2844 1947 2747 
L 2328 2669 
Q 3034 2534 3370 2195 
Q 3706 1856 3706 1288 
Q 3706 609 3251 259 
Q 2797 -91 1919 -91 
Q 1588 -91 1214 -16 
Q 841 59 441 206 
L 441 856 
Q 825 641 1194 531 
Q 1563 422 1919 422 
Q 2459 422 2753 634 
Q 3047 847 3047 1241 
Q 3047 1584 2836 1778 
Q 2625 1972 2144 2069 
L 1759 2144 
Q 1053 2284 737 2584 
Q 422 2884 422 3419 
Q 422 4038 858 4394 
Q 1294 4750 2059 4750 
Q 2388 4750 2728 4690 
Q 3069 4631 3425 4513 
z
" transform="scale(0.015625)"/>
       <path id="DejaVuSans-4e" d="M 628 4666 
L 1478 4666 
L 3547 763 
L 3547 4666 
L 4159 4666 
L 4159 0 
L 3309 0 
L 1241 3903 
L 1241 0 
L 628 0 
L 628 4666 
z
" transform="scale(0.015625)"/>
       <path id="DejaVuSans-52" d="M 2841 2188 
Q 3044 2119 3236 1894 
Q 3428 1669 3622 1275 
L 4263 0 
L 3584 0 
L 2988 1197 
Q 2756 1666 2539 1819 
Q 2322 1972 1947 1972 
L 1259 1972 
L 1259 0 
L 628 0 
L 628 4666 
L 2053 4666 
Q 2853 4666 3247 4331 
Q 3641 3997 3641 3322 
Q 3641 2881 3436 2590 
Q 3231 2300 2841 2188 
z
M 1259 4147 
L 1259 2491 
L 2053 2491 
Q 2509 2491 2742 2702 
Q 2975 2913 2975 3322 
Q 2975 3731 2742 3939 
Q 2509 4147 2053 4147 
L 1259 4147 
z
" transform="scale(0.015625)"/>
       <path id="DejaVuSans-64" d="M 2906 2969 
L 2906 4863 
L 3481 4863 
L 3481 0 
L 2906 0 
L 2906 525 
Q 2725 213 2448 61 
Q 2172 -91 1784 -91 
Q 1150 -91 751 415 
Q 353 922 353 1747 
Q 353 2572 751 3078 
Q 1150 3584 1784 3584 
Q 2172 3584 2448 3432 
Q 2725 3281 2906 2969 
z
M 947 1747 
Q 947 1113 1208 752 
Q 1469 391 1925 391 
Q 2381 391 2643 752 
Q 2906 1113 2906 1747 
Q 2906 2381 2643 2742 
Q 2381 3103 1925 3103 
Q 1469 3103 1208 2742 
Q 947 2381 947 1747 
z
" transform="scale(0.015625)"/>
       <path id="DejaVuSans-42" d="M 1259 2228 
L 1259 519 
L 2272 519 
Q 2781 519 3026 730 
Q 3272 941 3272 1375 
Q 3272 1813 3026 2020 
Q 2781 2228 2272 2228 
L 1259 2228 
z
M 1259 4147 
L 1259 2741 
L 2194 2741 
Q 2656 2741 2882 2914 
Q 3109 3088 3109 3444 
Q 3109 3797 2882 3972 
Q 2656 4147 2194 4147 
L 1259 4147 
z
M 628 4666 
L 2241 4666 
Q 2963 4666 3353 4366 
Q 3744 4066 3744 3513 
Q 3744 3084 3544 2831 
Q 3344 2578 2956 2516 
Q 3422 2416 3680 2098 
Q 3938 1781 3938 1306 
Q 3938 681 3513 340 
Q 3088 0 2303 0 
L 628 0 
L 628 4666 
z
" transform="scale(0.015625)"/>
      </defs>
      <use xlink:href="#DejaVuSans-50"/>
      <use xlink:href="#DejaVuSans-53" transform="translate(60.302734 0)"/>
      <use xlink:href="#DejaVuSans-4e" transform="translate(123.779297 0)"/>
      <use xlink:href="#DejaVuSans-52" transform="translate(198.583984 0)"/>
      <use xlink:href="#DejaVuSans-20" transform="translate(268.066406 0)"/>
      <use xlink:href="#DejaVuSans-28" transform="translate(299.853516 0)"/>
      <use xlink:href="#DejaVuSans-64" transform="translate(338.867188 0)"/>
      <use xlink:href="#DejaVuSans-42" transform="translate(402.34375 0)"/>
      <use xlink:href="#DejaVuSans-29" transform="translate(470.947266 0)"/>
     </g>
    </g>
   </g>
   <g id="FillBetweenPolyCollection_1">
    <path d="M 39.472797 289.870195 
L 39.472797 295.736495 
L 70.489479 224.846229 
L 88.633136 196.687404 
L 101.51957 180.95029 
L 111.505495 167.635588 
L 119.668524 154.525335 
L 126.56784 140.265641 
L 132.54706 125.021282 
L 137.819379 110.658675 
L 142.53727 95.35454 
L 146.803609 80.990981 
L 150.699527 67.837822 
L 154.282703 55.269133 
L 157.602045 45.138655 
L 160.691545 37.272739 
L 163.581676 31.75323 
L 166.29491 28.937211 
L 168.854758 27.932905 
L 171.274979 27.791239 
L 173.571738 27.87674 
L 173.571738 25.645254 
L 173.571738 25.645254 
L 171.274979 25.575526 
L 168.854758 25.741647 
L 166.29491 26.79145 
L 163.581676 29.679791 
L 160.691545 35.15052 
L 157.602045 42.859938 
L 154.282703 52.740672 
L 150.699527 65.000403 
L 146.803609 77.796302 
L 142.53727 91.837069 
L 137.819379 106.825138 
L 132.54706 121.108588 
L 126.56784 136.102188 
L 119.668524 150.242902 
L 111.505495 163.35467 
L 101.51957 176.69254 
L 88.633136 192.73098 
L 70.489479 220.616787 
L 39.472797 289.870195 
z
" clip-path="url(#pb88153cd18)" style="fill: #eb6834; fill-opacity: 0.15"/>
   </g>
   <g id="FillBetweenPolyCollection_2">
    <path d="M -10.223925 207.090827 
L -10.223925 209.653135 
L 20.919819 130.534715 
L 39.138407 100.146391 
L 52.045128 83.468112 
L 62.048955 70.738149 
L 70.227212 61.80595 
L 77.134478 53.187827 
L 83.119583 46.1247 
L 88.398949 40.364425 
L 93.122621 34.905949 
L 97.382591 30.159421 
L 101.250553 26.774079 
L 104.810228 23.284986 
L 108.107644 20.93925 
L 111.178068 19.351672 
L 114.054916 18.43139 
L 116.755865 18.034697 
L 119.304315 17.895545 
L 121.713336 17.853618 
L 123.995459 17.842737 
L 123.995459 16.230192 
L 123.995459 16.230192 
L 121.713336 16.248408 
L 119.304315 16.304671 
L 116.755865 16.479992 
L 114.054916 16.913735 
L 111.178068 17.787096 
L 108.107644 19.277847 
L 104.810228 21.44964 
L 101.250553 24.767616 
L 97.382591 27.996448 
L 93.122621 32.566891 
L 88.398949 37.879673 
L 83.119583 43.498252 
L 77.134478 50.554567 
L 70.227212 59.194276 
L 62.048955 68.234399 
L 52.045128 81.002433 
L 39.138407 97.757467 
L 20.919819 128.131867 
L -10.223925 207.090827 
z
" clip-path="url(#pb88153cd18)" style="fill: #2a78d6; fill-opacity: 0.15"/>
   </g>
   <g id="FillBetweenPolyCollection_3">
    <path d="M 19.333662 208.863097 
L 19.333662 211.540961 
L 50.341859 129.120324 
L 68.494237 96.997776 
L 81.373046 79.613096 
L 91.362946 66.466274 
L 99.523008 56.639835 
L 106.389677 48.719506 
L 112.337791 41.526332 
L 117.588196 35.206645 
L 122.286832 29.768206 
L 126.536921 24.846367 
L 130.417242 21.102441 
L 133.98445 17.773151 
L 137.30559 15.194585 
L 140.395454 13.491249 
L 143.285554 12.449629 
L 146.000819 11.952823 
L 148.563894 11.773689 
L 150.986155 11.72074 
L 153.283001 11.707169 
L 153.283001 9.9481 
L 153.283001 9.9481 
L 150.986155 9.959442 
L 148.563894 9.998998 
L 146.000819 10.130143 
L 143.285554 10.518221 
L 140.395454 11.357291 
L 137.30559 12.868494 
L 133.98445 15.232577 
L 130.417242 18.377604 
L 126.536921 22.043245 
L 122.286832 26.849853 
L 117.588196 32.214057 
L 112.337791 38.596514 
L 106.389677 45.72041 
L 99.523008 53.664889 
L 91.362946 63.600757 
L 81.373046 76.828076 
L 68.494237 94.368238 
L 50.341859 126.620821 
L 19.333662 208.863097 
z
" clip-path="url(#pb88153cd18)" style="fill: #2a78d6; fill-opacity: 0.15"/>
   </g>
   <g id="FillBetweenPolyCollection_4">
    <path d="M 5.472353 183.131411 
L 5.472353 189.927721 
L 36.512858 118.148468 
L 54.604546 89.371165 
L 67.472438 72.68136 
L 77.411152 61.396596 
L 85.599675 53.822856 
L 92.545972 47.494911 
L 98.444151 42.722905 
L 103.689151 38.663418 
L 108.410336 35.4546 
L 112.694129 32.818654 
L 116.613063 30.832276 
L 120.219322 29.237303 
L 123.55682 28.025008 
L 126.658627 27.26818 
L 129.526457 26.794647 
L 132.240255 26.595783 
L 134.781709 26.536906 
L 137.204321 26.526324 
L 139.506337 26.530749 
L 139.506337 25.201004 
L 139.506337 25.201004 
L 137.204321 25.191335 
L 134.781709 25.185211 
L 132.240255 25.193414 
L 129.526457 25.261575 
L 126.658627 25.442194 
L 123.55682 25.838838 
L 120.219322 26.573917 
L 116.613063 27.622101 
L 112.694129 29.223719 
L 108.410336 31.451168 
L 103.689151 34.25557 
L 98.444151 37.994778 
L 92.545972 42.462624 
L 85.599675 48.665582 
L 77.411152 55.951742 
L 67.472438 67.294042 
L 54.604546 84.207013 
L 36.512858 112.657389 
L 5.472353 183.131411 
z
" clip-path="url(#pb88153cd18)" style="fill: #1baf7a; fill-opacity: 0.15"/>
   </g>
   <g id="FillBetweenPolyCollection_5">
    <path d="M 34.560541 282.945773 
L 34.560541 286.70296 
L 65.575669 240.932641 
L 83.711386 220.194415 
L 96.581579 206.259183 
L 106.570818 192.256654 
L 114.73048 178.954869 
L 121.631315 163.534935 
L 127.609753 147.83218 
L 132.883287 131.403531 
L 137.599624 114.127127 
L 141.871603 96.74355 
L 145.767172 80.33133 
L 149.350564 63.70327 
L 152.66879 48.832264 
L 155.758906 36.531476 
L 158.648099 26.481449 
L 161.361912 20.406329 
L 163.920317 17.466736 
L 166.341127 16.472994 
L 168.637205 16.185485 
L 168.637205 14.99537 
L 168.637205 14.99537 
L 166.341127 15.302656 
L 163.920317 16.355013 
L 161.361912 19.443262 
L 158.648099 25.525177 
L 155.758906 35.037187 
L 152.66879 46.755618 
L 149.350564 60.876267 
L 145.767172 76.854284 
L 141.871603 92.889512 
L 137.599624 109.71766 
L 132.883287 126.66612 
L 127.609753 142.751787 
L 121.631315 158.314886 
L 114.73048 173.530761 
L 106.570818 186.890976 
L 96.581579 201.042346 
L 83.711386 215.329183 
L 65.575669 236.413485 
L 34.560541 282.945773 
z
" clip-path="url(#pb88153cd18)" style="fill: #eb6834; fill-opacity: 0.15"/>
   </g>
   <g id="FillBetweenPolyCollection_6">
    <path d="M 12.854339 213.362636 
L 12.854339 216.719435 
L 43.868723 165.550423 
L 62.040414 142.744746 
L 74.932917 128.87335 
L 84.936082 117.05958 
L 93.111547 107.569174 
L 100.020133 97.268778 
L 106.005735 89.350161 
L 111.284238 82.111853 
L 116.007701 74.220012 
L 120.280738 67.200117 
L 124.181416 60.80276 
L 127.768136 54.768485 
L 131.089955 49.725412 
L 134.18088 46.093359 
L 137.071584 43.38144 
L 139.789316 42.001328 
L 142.348176 41.411168 
L 144.77082 41.203276 
L 147.068332 41.135505 
L 147.068332 38.371691 
L 147.068332 38.371691 
L 144.77082 38.440079 
L 142.348176 38.653883 
L 139.789316 39.29535 
L 137.071584 40.781695 
L 134.18088 43.559533 
L 131.089955 47.33696 
L 127.768136 52.435297 
L 124.181416 58.570873 
L 120.280738 64.91476 
L 116.007701 71.963371 
L 111.284238 79.73278 
L 106.005735 87.40887 
L 100.020133 95.386897 
L 93.111547 105.183076 
L 84.936082 114.533731 
L 74.932917 126.703658 
L 62.040414 140.747303 
L 43.868723 163.595661 
L 12.854339 213.362636 
z
" clip-path="url(#pb88153cd18)" style="fill: #4a3aa7; fill-opacity: 0.15"/>
   </g>
   <g id="line2d_27">
    <path d="M 34.870625 35.810381 
L 177.83952 35.810381 
" clip-path="url(#pb88153cd18)" style="fill: none; stroke-dasharray: 0.8,1.32; stroke-dashoffset: 0; stroke: #666666; stroke-width: 0.8"/>
   </g>
   <g id="line2d_28">
    <path d="M 115.312977 159.37976 
L 119.668524 152.384118 
L 126.56784 138.183915 
L 132.54706 123.064935 
L 137.819379 108.741906 
L 142.53727 93.595805 
L 146.803609 79.393641 
L 150.699527 66.419113 
L 154.282703 54.004903 
L 157.602045 43.999296 
L 160.691545 36.21163 
L 163.581676 30.71651 
L 166.29491 27.864331 
L 168.854758 26.837276 
L 171.274979 26.683383 
L 173.571738 26.760997 
" clip-path="url(#pb88153cd18)" style="fill: none; stroke: #eb6834; stroke-width: 1.5; stroke-linecap: round"/>
   </g>
   <g id="line2d_29">
    <path d="M 9.080559 159.37976 
L 20.919819 129.333291 
L 39.138407 98.951929 
L 52.045128 82.235272 
L 62.048955 69.486274 
L 70.227212 60.500113 
L 77.134478 51.871197 
L 83.119583 44.811476 
L 88.398949 39.122049 
L 93.122621 33.73642 
L 97.382591 29.077934 
L 101.250553 25.770847 
L 104.810228 22.367313 
L 108.107644 20.108548 
L 111.178068 18.569384 
L 114.054916 17.672562 
L 116.755865 17.257345 
L 119.304315 17.100108 
L 121.713336 17.051013 
L 123.995459 17.036465 
" clip-path="url(#pb88153cd18)" style="fill: none; stroke-dasharray: 6,3; stroke-dashoffset: 0; stroke: #2a78d6; stroke-width: 1.5"/>
   </g>
   <g id="line2d_30">
    <path d="M 38.474668 159.37976 
L 50.341859 127.870572 
L 68.494237 95.683007 
L 81.373046 78.220586 
L 91.362946 65.033515 
L 99.523008 55.152362 
L 106.389677 47.219958 
L 112.337791 40.061423 
L 117.588196 33.710351 
L 122.286832 28.309029 
L 126.536921 23.444806 
L 130.417242 19.740023 
L 133.98445 16.502864 
L 137.30559 14.031539 
L 140.395454 12.42427 
L 143.285554 11.483925 
L 146.000819 11.041483 
L 148.563894 10.886343 
L 150.986155 10.840091 
L 153.283001 10.827635 
" clip-path="url(#pb88153cd18)" style="fill: none; stroke: #2a78d6; stroke-width: 1.5; stroke-linecap: round"/>
   </g>
   <g id="line2d_31">
    <path d="M 17.320849 159.37976 
L 36.512858 115.402928 
L 54.604546 86.789089 
L 67.472438 69.987701 
L 77.411152 58.674169 
L 85.599675 51.244219 
L 92.545972 44.978768 
L 98.444151 40.358841 
L 103.689151 36.459494 
L 108.410336 33.452884 
L 112.694129 31.021187 
L 116.613063 29.227189 
L 120.219322 27.90561 
L 123.55682 26.931923 
L 126.658627 26.355187 
L 129.526457 26.028111 
L 132.240255 25.894598 
L 134.781709 25.861059 
L 137.204321 25.858829 
L 139.506337 25.865877 
" clip-path="url(#pb88153cd18)" style="fill: none; stroke: #1baf7a; stroke-width: 1.5; stroke-linecap: round"/>
   </g>
   <g id="line2d_32">
    <path d="M 122.222221 159.37976 
L 127.609753 145.291984 
L 132.883287 129.034825 
L 137.599624 111.922393 
L 141.871603 94.816531 
L 145.767172 78.592807 
L 149.350564 62.289769 
L 152.66879 47.793941 
L 155.758906 35.784331 
L 158.648099 26.003313 
L 161.361912 19.924796 
L 163.920317 16.910875 
L 166.341127 15.887825 
L 168.637205 15.590427 
" clip-path="url(#pb88153cd18)" style="fill: none; stroke-dasharray: 6,3; stroke-dashoffset: 0; stroke: #eb6834; stroke-width: 1.5"/>
   </g>
   <g id="line2d_33">
    <path d="M 48.00289 159.37976 
L 62.040414 141.746025 
L 74.932917 127.788504 
L 84.936082 115.796656 
L 93.111547 106.376125 
L 100.020133 96.327837 
L 106.005735 88.379516 
L 111.284238 80.922316 
L 116.007701 73.091692 
L 120.280738 66.057439 
L 124.181416 59.686817 
L 127.768136 53.601891 
L 131.089955 48.531186 
L 134.18088 44.826446 
L 137.071584 42.081568 
L 139.789316 40.648339 
L 142.348176 40.032526 
L 144.77082 39.821677 
L 147.068332 39.753598 
" clip-path="url(#pb88153cd18)" style="fill: none; stroke: #4a3aa7; stroke-width: 1.5; stroke-linecap: round"/>
   </g>
   <g id="patch_3">
    <path d="M 34.870625 108.35404 
L 34.870625 4.859297 
" style="fill: none; stroke: #262626; stroke-width: 0.8; stroke-linejoin: miter; stroke-linecap: square"/>
   </g>
   <g id="patch_4">
    <path d="M 34.870625 108.35404 
L 177.83952 108.35404 
" style="fill: none; stroke: #262626; stroke-width: 0.8; stroke-linejoin: miter; stroke-linecap: square"/>
   </g>
   <g id="line2d_34">
    <path d="M 168.637205 15.590427 
" style="fill: none; stroke: #eb6834; stroke-width: 1.5; stroke-linecap: round"/>
    <defs>
     <path id="m52a8206c70" d="M 0 2 
C 0.530406 2 1.03916 1.789267 1.414214 1.414214 
C 1.789267 1.03916 2 0.530406 2 0 
C 2 -0.530406 1.789267 -1.03916 1.414214 -1.414214 
C 1.03916 -1.789267 0.530406 -2 0 -2 
C -0.530406 -2 -1.03916 -1.789267 -1.414214 -1.414214 
C -1.789267 -1.03916 -2 -0.530406 -2 0 
C -2 0.530406 -1.789267 1.03916 -1.414214 1.414214 
C -1.03916 1.789267 -0.530406 2 0 2 
z
" style="stroke: #eb6834"/>
    </defs>
    <g>
     <use xlink:href="#m52a8206c70" x="168.637205" y="15.590427" style="fill: #ffffff; stroke: #eb6834"/>
    </g>
   </g>
   <g id="line2d_35">
    <path d="M 173.571738 26.760997 
" style="fill: none; stroke: #eb6834; stroke-width: 1.5; stroke-linecap: round"/>
    <defs>
     <path id="mf6cb591919" d="M 0 2 
C 0.530406 2 1.03916 1.789267 1.414214 1.414214 
C 1.789267 1.03916 2 0.530406 2 0 
C 2 -0.530406 1.789267 -1.03916 1.414214 -1.414214 
C 1.03916 -1.789267 0.530406 -2 0 -2 
C -0.530406 -2 -1.03916 -1.789267 -1.414214 -1.414214 
C -1.789267 -1.03916 -2 -0.530406 -2 0 
C -2 0.530406 -1.789267 1.03916 -1.414214 1.414214 
C -1.03916 1.789267 -0.530406 2 0 2 
z
" style="stroke: #eb6834"/>
    </defs>
    <g>
     <use xlink:href="#mf6cb591919" x="173.571738" y="26.760997" style="fill: #eb6834; stroke: #eb6834"/>
    </g>
   </g>
   <g id="line2d_36">
    <path d="M 139.506337 25.865877 
" style="fill: none; stroke: #1baf7a; stroke-width: 1.5; stroke-linecap: round"/>
    <defs>
     <path id="m6b6158fceb" d="M 0 2 
C 0.530406 2 1.03916 1.789267 1.414214 1.414214 
C 1.789267 1.03916 2 0.530406 2 0 
C 2 -0.530406 1.789267 -1.03916 1.414214 -1.414214 
C 1.03916 -1.789267 0.530406 -2 0 -2 
C -0.530406 -2 -1.03916 -1.789267 -1.414214 -1.414214 
C -1.789267 -1.03916 -2 -0.530406 -2 0 
C -2 0.530406 -1.789267 1.03916 -1.414214 1.414214 
C -1.03916 1.789267 -0.530406 2 0 2 
z
" style="stroke: #1baf7a"/>
    </defs>
    <g>
     <use xlink:href="#m6b6158fceb" x="139.506337" y="25.865877" style="fill: #1baf7a; stroke: #1baf7a"/>
    </g>
   </g>
   <g id="line2d_37">
    <path d="M 147.068332 39.753598 
" style="fill: none; stroke: #4a3aa7; stroke-width: 1.5; stroke-linecap: round"/>
    <defs>
     <path id="m4938ae1da2" d="M 0 2 
C 0.530406 2 1.03916 1.789267 1.414214 1.414214 
C 1.789267 1.03916 2 0.530406 2 0 
C 2 -0.530406 1.789267 -1.03916 1.414214 -1.414214 
C 1.03916 -1.789267 0.530406 -2 0 -2 
C -0.530406 -2 -1.03916 -1.789267 -1.414214 -1.414214 
C -1.789267 -1.03916 -2 -0.530406 -2 0 
C -2 0.530406 -1.789267 1.03916 -1.414214 1.414214 
C -1.03916 1.789267 -0.530406 2 0 2 
z
" style="stroke: #4a3aa7"/>
    </defs>
    <g>
     <use xlink:href="#m4938ae1da2" x="147.068332" y="39.753598" style="fill: #4a3aa7; stroke: #4a3aa7"/>
    </g>
   </g>
   <g id="line2d_38">
    <path d="M 153.283001 10.827635 
" style="fill: none; stroke: #2a78d6; stroke-width: 1.5; stroke-linecap: round"/>
    <defs>
     <path id="m29eff2cc19" d="M 0 2 
C 0.530406 2 1.03916 1.789267 1.414214 1.414214 
C 1.789267 1.03916 2 0.530406 2 0 
C 2 -0.530406 1.789267 -1.03916 1.414214 -1.414214 
C 1.03916 -1.789267 0.530406 -2 0 -2 
C -0.530406 -2 -1.03916 -1.789267 -1.414214 -1.414214 
C -1.789267 -1.03916 -2 -0.530406 -2 0 
C -2 0.530406 -1.789267 1.03916 -1.414214 1.414214 
C -1.03916 1.789267 -0.530406 2 0 2 
z
" style="stroke: #2a78d6"/>
    </defs>
    <g>
     <use xlink:href="#m29eff2cc19" x="153.283001" y="10.827635" style="fill: #2a78d6; stroke: #2a78d6"/>
    </g>
   </g>
   <g id="line2d_39">
    <path d="M 123.995459 17.036465 
" style="fill: none; stroke: #2a78d6; stroke-width: 1.5; stroke-linecap: round"/>
    <defs>
     <path id="mc1020a74dd" d="M 0 2 
C 0.530406 2 1.03916 1.789267 1.414214 1.414214 
C 1.789267 1.03916 2 0.530406 2 0 
C 2 -0.530406 1.789267 -1.03916 1.414214 -1.414214 
C 1.03916 -1.789267 0.530406 -2 0 -2 
C -0.530406 -2 -1.03916 -1.789267 -1.414214 -1.414214 
C -1.789267 -1.03916 -2 -0.530406 -2 0 
C -2 0.530406 -1.789267 1.03916 -1.414214 1.414214 
C -1.03916 1.789267 -0.530406 2 0 2 
z
" style="stroke: #2a78d6"/>
    </defs>
    <g>
     <use xlink:href="#mc1020a74dd" x="123.995459" y="17.036465" style="fill: #ffffff; stroke: #2a78d6"/>
    </g>
   </g>
  </g>
  <g id="axes_2">
   <g id="patch_5">
    <path d="M 217.270625 108.35404 
L 360.23952 108.35404 
L 360.23952 4.859297 
L 217.270625 4.859297 
z
" style="fill: #ffffff"/>
   </g>
   <g id="matplotlib.axis_3">
    <g id="xtick_14">
     <g id="line2d_40">
      <path d="M 233.712797 108.35404 
L 233.712797 4.859297 
" clip-path="url(#pd2e9cf5139)" style="fill: none; stroke: #cccccc; stroke-opacity: 0.25; stroke-width: 0.5; stroke-linecap: round"/>
     </g>
     <g id="line2d_41">
      <g>
       <use xlink:href="#m60fb3d7630" x="233.712797" y="108.35404" style="fill: #262626; stroke: #262626"/>
      </g>
     </g>
     <g id="text_12">
      <!-- 60 -->
      <g style="fill: #262626" transform="translate(227.986547 123.492634) scale(0.09 -0.09)">
       <use xlink:href="#DejaVuSans-36"/>
       <use xlink:href="#DejaVuSans-30" transform="translate(63.623047 0)"/>
      </g>
     </g>
    </g>
    <g id="xtick_15">
     <g id="line2d_42">
      <path d="M 267.27795 108.35404 
L 267.27795 4.859297 
" clip-path="url(#pd2e9cf5139)" style="fill: none; stroke: #cccccc; stroke-opacity: 0.25; stroke-width: 0.5; stroke-linecap: round"/>
     </g>
     <g id="line2d_43">
      <g>
       <use xlink:href="#m60fb3d7630" x="267.27795" y="108.35404" style="fill: #262626; stroke: #262626"/>
      </g>
     </g>
     <g id="text_13">
      <!-- 120 -->
      <g style="fill: #262626" transform="translate(258.688575 123.492634) scale(0.09 -0.09)">
       <use xlink:href="#DejaVuSans-31"/>
       <use xlink:href="#DejaVuSans-32" transform="translate(63.623047 0)"/>
       <use xlink:href="#DejaVuSans-30" transform="translate(127.246094 0)"/>
      </g>
     </g>
    </g>
    <g id="xtick_16">
     <g id="line2d_44">
      <path d="M 300.843102 108.35404 
L 300.843102 4.859297 
" clip-path="url(#pd2e9cf5139)" style="fill: none; stroke: #cccccc; stroke-opacity: 0.25; stroke-width: 0.5; stroke-linecap: round"/>
     </g>
     <g id="line2d_45">
      <g>
       <use xlink:href="#m60fb3d7630" x="300.843102" y="108.35404" style="fill: #262626; stroke: #262626"/>
      </g>
     </g>
     <g id="text_14">
      <!-- 180 -->
      <g style="fill: #262626" transform="translate(292.253727 123.492634) scale(0.09 -0.09)">
       <use xlink:href="#DejaVuSans-31"/>
       <use xlink:href="#DejaVuSans-38" transform="translate(63.623047 0)"/>
       <use xlink:href="#DejaVuSans-30" transform="translate(127.246094 0)"/>
      </g>
     </g>
    </g>
    <g id="xtick_17">
     <g id="line2d_46">
      <path d="M 334.408255 108.35404 
L 334.408255 4.859297 
" clip-path="url(#pd2e9cf5139)" style="fill: none; stroke: #cccccc; stroke-opacity: 0.25; stroke-width: 0.5; stroke-linecap: round"/>
     </g>
     <g id="line2d_47">
      <g>
       <use xlink:href="#m60fb3d7630" x="334.408255" y="108.35404" style="fill: #262626; stroke: #262626"/>
      </g>
     </g>
     <g id="text_15">
      <!-- 240 -->
      <g style="fill: #262626" transform="translate(325.81888 123.492634) scale(0.09 -0.09)">
       <defs>
        <path id="DejaVuSans-34" d="M 2419 4116 
L 825 1625 
L 2419 1625 
L 2419 4116 
z
M 2253 4666 
L 3047 4666 
L 3047 1625 
L 3713 1625 
L 3713 1100 
L 3047 1100 
L 3047 0 
L 2419 0 
L 2419 1100 
L 313 1100 
L 313 1709 
L 2253 4666 
z
" transform="scale(0.015625)"/>
       </defs>
       <use xlink:href="#DejaVuSans-32"/>
       <use xlink:href="#DejaVuSans-34" transform="translate(63.623047 0)"/>
       <use xlink:href="#DejaVuSans-30" transform="translate(127.246094 0)"/>
      </g>
     </g>
    </g>
    <g id="text_16">
     <!-- Training time (s)$\,\downarrow$ -->
     <g style="fill: #262626" transform="translate(240.355072 136.964353) scale(0.1 -0.1)">
      <defs>
       <path id="DejaVuSans-2193" d="M 2822 -22 
L 2541 -22 
L 1309 1209 
L 1684 1584 
L 2416 853 
L 2416 4666 
L 2947 4666 
L 2947 853 
L 3672 1584 
L 4047 1209 
L 2822 -22 
z
" transform="scale(0.015625)"/>
      </defs>
      <use xlink:href="#DejaVuSans-54" transform="translate(0 0.015625)"/>
      <use xlink:href="#DejaVuSans-72" transform="translate(61.083984 0.015625)"/>
      <use xlink:href="#DejaVuSans-61" transform="translate(102.197266 0.015625)"/>
      <use xlink:href="#DejaVuSans-69" transform="translate(163.476562 0.015625)"/>
      <use xlink:href="#DejaVuSans-6e" transform="translate(191.259766 0.015625)"/>
      <use xlink:href="#DejaVuSans-69" transform="translate(254.638672 0.015625)"/>
      <use xlink:href="#DejaVuSans-6e" transform="translate(282.421875 0.015625)"/>
      <use xlink:href="#DejaVuSans-67" transform="translate(345.800781 0.015625)"/>
      <use xlink:href="#DejaVuSans-20" transform="translate(409.277344 0.015625)"/>
      <use xlink:href="#DejaVuSans-74" transform="translate(441.064453 0.015625)"/>
      <use xlink:href="#DejaVuSans-69" transform="translate(480.273438 0.015625)"/>
      <use xlink:href="#DejaVuSans-6d" transform="translate(508.056641 0.015625)"/>
      <use xlink:href="#DejaVuSans-65" transform="translate(605.46875 0.015625)"/>
      <use xlink:href="#DejaVuSans-20" transform="translate(666.992188 0.015625)"/>
      <use xlink:href="#DejaVuSans-28" transform="translate(698.779297 0.015625)"/>
      <use xlink:href="#DejaVuSans-73" transform="translate(737.792969 0.015625)"/>
      <use xlink:href="#DejaVuSans-29" transform="translate(789.892578 0.015625)"/>
      <use xlink:href="#DejaVuSans-2193" transform="translate(864.624348 0.015625)"/>
     </g>
    </g>
   </g>
   <g id="matplotlib.axis_4">
    <g id="ytick_5">
     <g id="line2d_48">
      <path d="M 217.270625 108.35404 
L 360.23952 108.35404 
" clip-path="url(#pd2e9cf5139)" style="fill: none; stroke: #cccccc; stroke-opacity: 0.25; stroke-width: 0.5; stroke-linecap: round"/>
     </g>
     <g id="line2d_49">
      <g>
       <use xlink:href="#m76e43aa92f" x="217.270625" y="108.35404" style="fill: #262626; stroke: #262626"/>
      </g>
     </g>
     <g id="text_17">
      <!-- 26 -->
      <g style="fill: #262626" transform="translate(197.518125 111.773337) scale(0.09 -0.09)">
       <use xlink:href="#DejaVuSans-32"/>
       <use xlink:href="#DejaVuSans-36" transform="translate(63.623047 0)"/>
      </g>
     </g>
    </g>
    <g id="ytick_6">
     <g id="line2d_50">
      <path d="M 217.270625 82.480354 
L 360.23952 82.480354 
" clip-path="url(#pd2e9cf5139)" style="fill: none; stroke: #cccccc; stroke-opacity: 0.25; stroke-width: 0.5; stroke-linecap: round"/>
     </g>
     <g id="line2d_51">
      <g>
       <use xlink:href="#m76e43aa92f" x="217.270625" y="82.480354" style="fill: #262626; stroke: #262626"/>
      </g>
     </g>
     <g id="text_18">
      <!-- 27 -->
      <g style="fill: #262626" transform="translate(197.518125 85.899651) scale(0.09 -0.09)">
       <use xlink:href="#DejaVuSans-32"/>
       <use xlink:href="#DejaVuSans-37" transform="translate(63.623047 0)"/>
      </g>
     </g>
    </g>
    <g id="ytick_7">
     <g id="line2d_52">
      <path d="M 217.270625 56.606668 
L 360.23952 56.606668 
" clip-path="url(#pd2e9cf5139)" style="fill: none; stroke: #cccccc; stroke-opacity: 0.25; stroke-width: 0.5; stroke-linecap: round"/>
     </g>
     <g id="line2d_53">
      <g>
       <use xlink:href="#m76e43aa92f" x="217.270625" y="56.606668" style="fill: #262626; stroke: #262626"/>
      </g>
     </g>
     <g id="text_19">
      <!-- 28 -->
      <g style="fill: #262626" transform="translate(197.518125 60.025965) scale(0.09 -0.09)">
       <use xlink:href="#DejaVuSans-32"/>
       <use xlink:href="#DejaVuSans-38" transform="translate(63.623047 0)"/>
      </g>
     </g>
    </g>
    <g id="ytick_8">
     <g id="line2d_54">
      <path d="M 217.270625 30.732983 
L 360.23952 30.732983 
" clip-path="url(#pd2e9cf5139)" style="fill: none; stroke: #cccccc; stroke-opacity: 0.25; stroke-width: 0.5; stroke-linecap: round"/>
     </g>
     <g id="line2d_55">
      <g>
       <use xlink:href="#m76e43aa92f" x="217.270625" y="30.732983" style="fill: #262626; stroke: #262626"/>
      </g>
     </g>
     <g id="text_20">
      <!-- 29 -->
      <g style="fill: #262626" transform="translate(197.518125 34.15228) scale(0.09 -0.09)">
       <use xlink:href="#DejaVuSans-32"/>
       <use xlink:href="#DejaVuSans-39" transform="translate(63.623047 0)"/>
      </g>
     </g>
    </g>
    <g id="ytick_9">
     <g id="line2d_56">
      <path d="M 217.270625 4.859297 
L 360.23952 4.859297 
" clip-path="url(#pd2e9cf5139)" style="fill: none; stroke: #cccccc; stroke-opacity: 0.25; stroke-width: 0.5; stroke-linecap: round"/>
     </g>
     <g id="line2d_57">
      <g>
       <use xlink:href="#m76e43aa92f" x="217.270625" y="4.859297" style="fill: #262626; stroke: #262626"/>
      </g>
     </g>
     <g id="text_21">
      <!-- 30 -->
      <g style="fill: #262626" transform="translate(197.518125 8.278594) scale(0.09 -0.09)">
       <use xlink:href="#DejaVuSans-33"/>
       <use xlink:href="#DejaVuSans-30" transform="translate(63.623047 0)"/>
      </g>
     </g>
    </g>
    <g id="text_22">
     <!-- PSNR (dB) -->
     <g style="fill: #262626" transform="translate(191.438437 82.105887) rotate(-90) scale(0.1 -0.1)">
      <use xlink:href="#DejaVuSans-50"/>
      <use xlink:href="#DejaVuSans-53" transform="translate(60.302734 0)"/>
      <use xlink:href="#DejaVuSans-4e" transform="translate(123.779297 0)"/>
      <use xlink:href="#DejaVuSans-52" transform="translate(198.583984 0)"/>
      <use xlink:href="#DejaVuSans-20" transform="translate(268.066406 0)"/>
      <use xlink:href="#DejaVuSans-28" transform="translate(299.853516 0)"/>
      <use xlink:href="#DejaVuSans-64" transform="translate(338.867188 0)"/>
      <use xlink:href="#DejaVuSans-42" transform="translate(402.34375 0)"/>
      <use xlink:href="#DejaVuSans-29" transform="translate(470.947266 0)"/>
     </g>
    </g>
   </g>
   <g id="line2d_58">
    <path d="M 217.270625 53.946296 
L 360.23952 53.946296 
" clip-path="url(#pd2e9cf5139)" style="fill: none; stroke-dasharray: 0.8,1.32; stroke-dashoffset: 0; stroke: #666666; stroke-width: 0.8"/>
   </g>
   <g id="PathCollection_1">
    <defs>
     <path id="m92e573ffa8" d="M 0 1.870829 
C 0.49615 1.870829 0.972045 1.673706 1.322876 1.322876 
C 1.673706 0.972045 1.870829 0.49615 1.870829 0 
C 1.870829 -0.49615 1.673706 -0.972045 1.322876 -1.322876 
C 0.972045 -1.673706 0.49615 -1.870829 0 -1.870829 
C -0.49615 -1.870829 -0.972045 -1.673706 -1.322876 -1.322876 
C -1.673706 -0.972045 -1.870829 -0.49615 -1.870829 0 
C -1.870829 0.49615 -1.673706 0.972045 -1.322876 1.322876 
C -0.972045 1.673706 -0.49615 1.870829 0 1.870829 
z
" style="stroke: #b2b2b2; stroke-width: 0.8"/>
    </defs>
    <g clip-path="url(#pd2e9cf5139)">
     <use xlink:href="#m92e573ffa8" x="350.379596" y="54.867683" style="fill: #b2b2b2; stroke: #b2b2b2; stroke-width: 0.8"/>
     <use xlink:href="#m92e573ffa8" x="238.648531" y="49.947919" style="fill: #b2b2b2; stroke: #b2b2b2; stroke-width: 0.8"/>
     <use xlink:href="#m92e573ffa8" x="285.170047" y="102.330676" style="fill: #b2b2b2; stroke: #b2b2b2; stroke-width: 0.8"/>
     <use xlink:href="#m92e573ffa8" x="324.853704" y="66.729135" style="fill: #b2b2b2; stroke: #b2b2b2; stroke-width: 0.8"/>
     <use xlink:href="#m92e573ffa8" x="267.140225" y="195.966432" style="fill: #b2b2b2; stroke: #b2b2b2; stroke-width: 0.8"/>
     <use xlink:href="#m92e573ffa8" x="258.914522" y="78.571833" style="fill: #b2b2b2; stroke: #b2b2b2; stroke-width: 0.8"/>
     <use xlink:href="#m92e573ffa8" x="296.236333" y="102.324137" style="fill: #b2b2b2; stroke: #b2b2b2; stroke-width: 0.8"/>
    </g>
   </g>
   <g id="PathCollection_2">
    <defs>
     <path id="m0aaa7b53a6" d="M -0 1.870829 
L 1.870829 -1.870829 
L -1.870829 -1.870829 
z
" style="stroke: #b2b2b2; stroke-width: 0.8"/>
    </defs>
    <g>
     <use xlink:href="#m0aaa7b53a6" x="267.140225" y="108.35404" style="fill: #b2b2b2; stroke: #b2b2b2; stroke-width: 0.8"/>
    </g>
   </g>
   <g id="patch_6">
    <path d="M 217.270625 108.35404 
L 217.270625 4.859297 
" style="fill: none; stroke: #262626; stroke-width: 0.8; stroke-linejoin: miter; stroke-linecap: square"/>
   </g>
   <g id="patch_7">
    <path d="M 217.270625 108.35404 
L 360.23952 108.35404 
" style="fill: none; stroke: #262626; stroke-width: 0.8; stroke-linejoin: miter; stroke-linecap: square"/>
   </g>
   <g id="PathCollection_3">
    <defs>
     <path id="m78c4d588a0" d="M 0 2.738613 
C 0.726289 2.738613 1.422928 2.450055 1.936492 1.936492 
C 2.450055 1.422928 2.738613 0.726289 2.738613 0 
C 2.738613 -0.726289 2.450055 -1.422928 1.936492 -1.936492 
C 1.422928 -2.450055 0.726289 -2.738613 0 -2.738613 
C -0.726289 -2.738613 -1.422928 -2.450055 -1.936492 -1.936492 
C -2.450055 -1.422928 -2.738613 -0.726289 -2.738613 0 
C -2.738613 0.726289 -2.450055 1.422928 -1.936492 1.936492 
C -1.422928 2.450055 -0.726289 2.738613 0 2.738613 
z
" style="stroke: #eb6834; stroke-width: 0.8"/>
    </defs>
    <g clip-path="url(#pd2e9cf5139)">
     <use xlink:href="#m78c4d588a0" x="273.272237" y="38.781331" style="fill: #ffffff; stroke: #eb6834; stroke-width: 0.8"/>
    </g>
   </g>
   <g id="PathCollection_4">
    <defs>
     <path id="m08365e4268" d="M 0 2.738613 
C 0.726289 2.738613 1.422928 2.450055 1.936492 1.936492 
C 2.450055 1.422928 2.738613 0.726289 2.738613 0 
C 2.738613 -0.726289 2.450055 -1.422928 1.936492 -1.936492 
C 1.422928 -2.450055 0.726289 -2.738613 0 -2.738613 
C -0.726289 -2.738613 -1.422928 -2.450055 -1.936492 -1.936492 
C -2.450055 -1.422928 -2.738613 -0.726289 -2.738613 0 
C -2.738613 0.726289 -2.450055 1.422928 -1.936492 1.936492 
C -1.422928 2.450055 -0.726289 2.738613 0 2.738613 
z
" style="stroke: #eb6834; stroke-width: 0.8"/>
    </defs>
    <g clip-path="url(#pd2e9cf5139)">
     <use xlink:href="#m08365e4268" x="281.791384" y="47.159258" style="fill: #eb6834; stroke: #eb6834; stroke-width: 0.8"/>
    </g>
   </g>
   <g id="PathCollection_5">
    <defs>
     <path id="m873580495f" d="M 0 2.738613 
C 0.726289 2.738613 1.422928 2.450055 1.936492 1.936492 
C 2.450055 1.422928 2.738613 0.726289 2.738613 0 
C 2.738613 -0.726289 2.450055 -1.422928 1.936492 -1.936492 
C 1.422928 -2.450055 0.726289 -2.738613 0 -2.738613 
C -0.726289 -2.738613 -1.422928 -2.450055 -1.936492 -1.936492 
C -2.450055 -1.422928 -2.738613 -0.726289 -2.738613 0 
C -2.738613 0.726289 -2.450055 1.422928 -1.936492 1.936492 
C -1.422928 2.450055 -0.726289 2.738613 0 2.738613 
z
" style="stroke: #1baf7a; stroke-width: 0.8"/>
    </defs>
    <g clip-path="url(#pd2e9cf5139)">
     <use xlink:href="#m873580495f" x="238.300477" y="46.487917" style="fill: #1baf7a; stroke: #1baf7a; stroke-width: 0.8"/>
    </g>
   </g>
   <g id="PathCollection_6">
    <defs>
     <path id="m30f8262539" d="M 0 2.738613 
C 0.726289 2.738613 1.422928 2.450055 1.936492 1.936492 
C 2.450055 1.422928 2.738613 0.726289 2.738613 0 
C 2.738613 -0.726289 2.450055 -1.422928 1.936492 -1.936492 
C 1.422928 -2.450055 0.726289 -2.738613 0 -2.738613 
C -0.726289 -2.738613 -1.422928 -2.450055 -1.936492 -1.936492 
C -2.450055 -1.422928 -2.738613 -0.726289 -2.738613 0 
C -2.738613 0.726289 -2.450055 1.422928 -1.936492 1.936492 
C -1.422928 2.450055 -0.726289 2.738613 0 2.738613 
z
" style="stroke: #4a3aa7; stroke-width: 0.8"/>
    </defs>
    <g clip-path="url(#pd2e9cf5139)">
     <use xlink:href="#m30f8262539" x="245.319678" y="56.903708" style="fill: #4a3aa7; stroke: #4a3aa7; stroke-width: 0.8"/>
    </g>
   </g>
   <g id="PathCollection_7">
    <defs>
     <path id="mdfe978dfb4" d="M 0 2.738613 
C 0.726289 2.738613 1.422928 2.450055 1.936492 1.936492 
C 2.450055 1.422928 2.738613 0.726289 2.738613 0 
C 2.738613 -0.726289 2.450055 -1.422928 1.936492 -1.936492 
C 1.422928 -2.450055 0.726289 -2.738613 0 -2.738613 
C -0.726289 -2.738613 -1.422928 -2.450055 -1.936492 -1.936492 
C -2.450055 -1.422928 -2.738613 -0.726289 -2.738613 0 
C -2.738613 0.726289 -2.450055 1.422928 -1.936492 1.936492 
C -1.422928 2.450055 -0.726289 2.738613 0 2.738613 
z
" style="stroke: #2a78d6; stroke-width: 0.8"/>
    </defs>
    <g clip-path="url(#pd2e9cf5139)">
     <use xlink:href="#mdfe978dfb4" x="252.044966" y="35.209236" style="fill: #2a78d6; stroke: #2a78d6; stroke-width: 0.8"/>
    </g>
   </g>
   <g id="PathCollection_8">
    <defs>
     <path id="m39817e0841" d="M 0 2.738613 
C 0.726289 2.738613 1.422928 2.450055 1.936492 1.936492 
C 2.450055 1.422928 2.738613 0.726289 2.738613 0 
C 2.738613 -0.726289 2.450055 -1.422928 1.936492 -1.936492 
C 1.422928 -2.450055 0.726289 -2.738613 0 -2.738613 
C -0.726289 -2.738613 -1.422928 -2.450055 -1.936492 -1.936492 
C -2.450055 -1.422928 -2.738613 -0.726289 -2.738613 0 
C -2.738613 0.726289 -2.450055 1.422928 -1.936492 1.936492 
C -1.422928 2.450055 -0.726289 2.738613 0 2.738613 
z
" style="stroke: #2a78d6; stroke-width: 0.8"/>
    </defs>
    <g clip-path="url(#pd2e9cf5139)">
     <use xlink:href="#m39817e0841" x="227.130549" y="39.865859" style="fill: #ffffff; stroke: #2a78d6; stroke-width: 0.8"/>
    </g>
   </g>
  </g>
  <g id="axes_3">
   <g id="patch_8">
    <path d="M 399.670625 108.35404 
L 542.63952 108.35404 
L 542.63952 4.859297 
L 399.670625 4.859297 
z
" style="fill: #ffffff"/>
   </g>
   <g id="matplotlib.axis_5">
    <g id="xtick_18">
     <g id="line2d_59">
      <path d="M 430.076868 108.35404 
L 430.076868 4.859297 
" clip-path="url(#p6194735144)" style="fill: none; stroke: #cccccc; stroke-opacity: 0.25; stroke-width: 0.5; stroke-linecap: round"/>
     </g>
     <g id="line2d_60">
      <g>
       <use xlink:href="#m60fb3d7630" x="430.076868" y="108.35404" style="fill: #262626; stroke: #262626"/>
      </g>
     </g>
     <g id="text_23">
      <!-- 6 -->
      <g style="fill: #262626" transform="translate(427.213743 123.492634) scale(0.09 -0.09)">
       <use xlink:href="#DejaVuSans-36"/>
      </g>
     </g>
    </g>
    <g id="xtick_19">
     <g id="line2d_61">
      <path d="M 462.839503 108.35404 
L 462.839503 4.859297 
" clip-path="url(#p6194735144)" style="fill: none; stroke: #cccccc; stroke-opacity: 0.25; stroke-width: 0.5; stroke-linecap: round"/>
     </g>
     <g id="line2d_62">
      <g>
       <use xlink:href="#m60fb3d7630" x="462.839503" y="108.35404" style="fill: #262626; stroke: #262626"/>
      </g>
     </g>
     <g id="text_24">
      <!-- 12 -->
      <g style="fill: #262626" transform="translate(457.113253 123.492634) scale(0.09 -0.09)">
       <use xlink:href="#DejaVuSans-31"/>
       <use xlink:href="#DejaVuSans-32" transform="translate(63.623047 0)"/>
      </g>
     </g>
    </g>
    <g id="xtick_20">
     <g id="line2d_63">
      <path d="M 495.602138 108.35404 
L 495.602138 4.859297 
" clip-path="url(#p6194735144)" style="fill: none; stroke: #cccccc; stroke-opacity: 0.25; stroke-width: 0.5; stroke-linecap: round"/>
     </g>
     <g id="line2d_64">
      <g>
       <use xlink:href="#m60fb3d7630" x="495.602138" y="108.35404" style="fill: #262626; stroke: #262626"/>
      </g>
     </g>
     <g id="text_25">
      <!-- 18 -->
      <g style="fill: #262626" transform="translate(489.875888 123.492634) scale(0.09 -0.09)">
       <use xlink:href="#DejaVuSans-31"/>
       <use xlink:href="#DejaVuSans-38" transform="translate(63.623047 0)"/>
      </g>
     </g>
    </g>
    <g id="xtick_21">
     <g id="line2d_65">
      <path d="M 528.364773 108.35404 
L 528.364773 4.859297 
" clip-path="url(#p6194735144)" style="fill: none; stroke: #cccccc; stroke-opacity: 0.25; stroke-width: 0.5; stroke-linecap: round"/>
     </g>
     <g id="line2d_66">
      <g>
       <use xlink:href="#m60fb3d7630" x="528.364773" y="108.35404" style="fill: #262626; stroke: #262626"/>
      </g>
     </g>
     <g id="text_26">
      <!-- 24 -->
      <g style="fill: #262626" transform="translate(522.638523 123.492634) scale(0.09 -0.09)">
       <use xlink:href="#DejaVuSans-32"/>
       <use xlink:href="#DejaVuSans-34" transform="translate(63.623047 0)"/>
      </g>
     </g>
    </g>
    <g id="text_27">
     <!-- Inference (img/s)$\,\uparrow$ -->
     <g style="fill: #262626" transform="translate(421.355072 136.964353) scale(0.1 -0.1)">
      <defs>
       <path id="DejaVuSans-49" d="M 628 4666 
L 1259 4666 
L 1259 0 
L 628 0 
L 628 4666 
z
" transform="scale(0.015625)"/>
       <path id="DejaVuSans-66" d="M 2375 4863 
L 2375 4384 
L 1825 4384 
Q 1516 4384 1395 4259 
Q 1275 4134 1275 3809 
L 1275 3500 
L 2222 3500 
L 2222 3053 
L 1275 3053 
L 1275 0 
L 697 0 
L 697 3053 
L 147 3053 
L 147 3500 
L 697 3500 
L 697 3744 
Q 697 4328 969 4595 
Q 1241 4863 1831 4863 
L 2375 4863 
z
" transform="scale(0.015625)"/>
       <path id="DejaVuSans-63" d="M 3122 3366 
L 3122 2828 
Q 2878 2963 2633 3030 
Q 2388 3097 2138 3097 
Q 1578 3097 1268 2742 
Q 959 2388 959 1747 
Q 959 1106 1268 751 
Q 1578 397 2138 397 
Q 2388 397 2633 464 
Q 2878 531 3122 666 
L 3122 134 
Q 2881 22 2623 -34 
Q 2366 -91 2075 -91 
Q 1284 -91 818 406 
Q 353 903 353 1747 
Q 353 2603 823 3093 
Q 1294 3584 2113 3584 
Q 2378 3584 2631 3529 
Q 2884 3475 3122 3366 
z
" transform="scale(0.015625)"/>
       <path id="DejaVuSans-2f" d="M 1625 4666 
L 2156 4666 
L 531 -594 
L 0 -594 
L 1625 4666 
z
" transform="scale(0.015625)"/>
       <path id="DejaVuSans-2191" d="M 2541 4688 
L 2822 4688 
L 4047 3456 
L 3672 3081 
L 2947 3813 
L 2947 0 
L 2416 0 
L 2416 3813 
L 1684 3081 
L 1309 3456 
L 2541 4688 
z
" transform="scale(0.015625)"/>
      </defs>
      <use xlink:href="#DejaVuSans-49" transform="translate(0 0.015625)"/>
      <use xlink:href="#DejaVuSans-6e" transform="translate(29.492188 0.015625)"/>
      <use xlink:href="#DejaVuSans-66" transform="translate(92.871094 0.015625)"/>
      <use xlink:href="#DejaVuSans-65" transform="translate(128.076172 0.015625)"/>
      <use xlink:href="#DejaVuSans-72" transform="translate(189.599609 0.015625)"/>
      <use xlink:href="#DejaVuSans-65" transform="translate(230.712891 0.015625)"/>
      <use xlink:href="#DejaVuSans-6e" transform="translate(292.236328 0.015625)"/>
      <use xlink:href="#DejaVuSans-63" transform="translate(355.615234 0.015625)"/>
      <use xlink:href="#DejaVuSans-65" transform="translate(410.595703 0.015625)"/>
      <use xlink:href="#DejaVuSans-20" transform="translate(472.119141 0.015625)"/>
      <use xlink:href="#DejaVuSans-28" transform="translate(503.90625 0.015625)"/>
      <use xlink:href="#DejaVuSans-69" transform="translate(542.919922 0.015625)"/>
      <use xlink:href="#DejaVuSans-6d" transform="translate(570.703125 0.015625)"/>
      <use xlink:href="#DejaVuSans-67" transform="translate(668.115234 0.015625)"/>
      <use xlink:href="#DejaVuSans-2f" transform="translate(731.591797 0.015625)"/>
      <use xlink:href="#DejaVuSans-73" transform="translate(765.283203 0.015625)"/>
      <use xlink:href="#DejaVuSans-29" transform="translate(817.382812 0.015625)"/>
      <use xlink:href="#DejaVuSans-2191" transform="translate(892.114583 0.015625)"/>
     </g>
    </g>
   </g>
   <g id="matplotlib.axis_6">
    <g id="ytick_10">
     <g id="line2d_67">
      <path d="M 399.670625 108.35404 
L 542.63952 108.35404 
" clip-path="url(#p6194735144)" style="fill: none; stroke: #cccccc; stroke-opacity: 0.25; stroke-width: 0.5; stroke-linecap: round"/>
     </g>
     <g id="line2d_68">
      <g>
       <use xlink:href="#m76e43aa92f" x="399.670625" y="108.35404" style="fill: #262626; stroke: #262626"/>
      </g>
     </g>
     <g id="text_28">
      <!-- 26 -->
      <g style="fill: #262626" transform="translate(379.918125 111.773337) scale(0.09 -0.09)">
       <use xlink:href="#DejaVuSans-32"/>
       <use xlink:href="#DejaVuSans-36" transform="translate(63.623047 0)"/>
      </g>
     </g>
    </g>
    <g id="ytick_11">
     <g id="line2d_69">
      <path d="M 399.670625 82.480354 
L 542.63952 82.480354 
" clip-path="url(#p6194735144)" style="fill: none; stroke: #cccccc; stroke-opacity: 0.25; stroke-width: 0.5; stroke-linecap: round"/>
     </g>
     <g id="line2d_70">
      <g>
       <use xlink:href="#m76e43aa92f" x="399.670625" y="82.480354" style="fill: #262626; stroke: #262626"/>
      </g>
     </g>
     <g id="text_29">
      <!-- 27 -->
      <g style="fill: #262626" transform="translate(379.918125 85.899651) scale(0.09 -0.09)">
       <use xlink:href="#DejaVuSans-32"/>
       <use xlink:href="#DejaVuSans-37" transform="translate(63.623047 0)"/>
      </g>
     </g>
    </g>
    <g id="ytick_12">
     <g id="line2d_71">
      <path d="M 399.670625 56.606668 
L 542.63952 56.606668 
" clip-path="url(#p6194735144)" style="fill: none; stroke: #cccccc; stroke-opacity: 0.25; stroke-width: 0.5; stroke-linecap: round"/>
     </g>
     <g id="line2d_72">
      <g>
       <use xlink:href="#m76e43aa92f" x="399.670625" y="56.606668" style="fill: #262626; stroke: #262626"/>
      </g>
     </g>
     <g id="text_30">
      <!-- 28 -->
      <g style="fill: #262626" transform="translate(379.918125 60.025965) scale(0.09 -0.09)">
       <use xlink:href="#DejaVuSans-32"/>
       <use xlink:href="#DejaVuSans-38" transform="translate(63.623047 0)"/>
      </g>
     </g>
    </g>
    <g id="ytick_13">
     <g id="line2d_73">
      <path d="M 399.670625 30.732983 
L 542.63952 30.732983 
" clip-path="url(#p6194735144)" style="fill: none; stroke: #cccccc; stroke-opacity: 0.25; stroke-width: 0.5; stroke-linecap: round"/>
     </g>
     <g id="line2d_74">
      <g>
       <use xlink:href="#m76e43aa92f" x="399.670625" y="30.732983" style="fill: #262626; stroke: #262626"/>
      </g>
     </g>
     <g id="text_31">
      <!-- 29 -->
      <g style="fill: #262626" transform="translate(379.918125 34.15228) scale(0.09 -0.09)">
       <use xlink:href="#DejaVuSans-32"/>
       <use xlink:href="#DejaVuSans-39" transform="translate(63.623047 0)"/>
      </g>
     </g>
    </g>
    <g id="ytick_14">
     <g id="line2d_75">
      <path d="M 399.670625 4.859297 
L 542.63952 4.859297 
" clip-path="url(#p6194735144)" style="fill: none; stroke: #cccccc; stroke-opacity: 0.25; stroke-width: 0.5; stroke-linecap: round"/>
     </g>
     <g id="line2d_76">
      <g>
       <use xlink:href="#m76e43aa92f" x="399.670625" y="4.859297" style="fill: #262626; stroke: #262626"/>
      </g>
     </g>
     <g id="text_32">
      <!-- 30 -->
      <g style="fill: #262626" transform="translate(379.918125 8.278594) scale(0.09 -0.09)">
       <use xlink:href="#DejaVuSans-33"/>
       <use xlink:href="#DejaVuSans-30" transform="translate(63.623047 0)"/>
      </g>
     </g>
    </g>
    <g id="text_33">
     <!-- PSNR (dB) -->
     <g style="fill: #262626" transform="translate(373.838437 82.105887) rotate(-90) scale(0.1 -0.1)">
      <use xlink:href="#DejaVuSans-50"/>
      <use xlink:href="#DejaVuSans-53" transform="translate(60.302734 0)"/>
      <use xlink:href="#DejaVuSans-4e" transform="translate(123.779297 0)"/>
      <use xlink:href="#DejaVuSans-52" transform="translate(198.583984 0)"/>
      <use xlink:href="#DejaVuSans-20" transform="translate(268.066406 0)"/>
      <use xlink:href="#DejaVuSans-28" transform="translate(299.853516 0)"/>
      <use xlink:href="#DejaVuSans-64" transform="translate(338.867188 0)"/>
      <use xlink:href="#DejaVuSans-42" transform="translate(402.34375 0)"/>
      <use xlink:href="#DejaVuSans-29" transform="translate(470.947266 0)"/>
     </g>
    </g>
   </g>
   <g id="line2d_77">
    <path d="M 399.670625 53.946296 
L 542.63952 53.946296 
" clip-path="url(#p6194735144)" style="fill: none; stroke-dasharray: 0.8,1.32; stroke-dashoffset: 0; stroke: #666666; stroke-width: 0.8"/>
   </g>
   <g id="PathCollection_9">
    <g clip-path="url(#p6194735144)">
     <use xlink:href="#m92e573ffa8" x="492.331978" y="54.867683" style="fill: #b2b2b2; stroke: #b2b2b2; stroke-width: 0.8"/>
     <use xlink:href="#m92e573ffa8" x="439.867929" y="49.947919" style="fill: #b2b2b2; stroke: #b2b2b2; stroke-width: 0.8"/>
     <use xlink:href="#m92e573ffa8" x="417.891897" y="102.330676" style="fill: #b2b2b2; stroke: #b2b2b2; stroke-width: 0.8"/>
     <use xlink:href="#m92e573ffa8" x="409.530549" y="66.729135" style="fill: #b2b2b2; stroke: #b2b2b2; stroke-width: 0.8"/>
     <use xlink:href="#m92e573ffa8" x="422.907134" y="195.966432" style="fill: #b2b2b2; stroke: #b2b2b2; stroke-width: 0.8"/>
     <use xlink:href="#m92e573ffa8" x="423.81505" y="78.571833" style="fill: #b2b2b2; stroke: #b2b2b2; stroke-width: 0.8"/>
     <use xlink:href="#m92e573ffa8" x="416.343182" y="102.324137" style="fill: #b2b2b2; stroke: #b2b2b2; stroke-width: 0.8"/>
    </g>
   </g>
   <g id="PathCollection_10">
    <g>
     <use xlink:href="#m0aaa7b53a6" x="422.907134" y="108.35404" style="fill: #b2b2b2; stroke: #b2b2b2; stroke-width: 0.8"/>
    </g>
   </g>
   <g id="patch_9">
    <path d="M 399.670625 108.35404 
L 399.670625 4.859297 
" style="fill: none; stroke: #262626; stroke-width: 0.8; stroke-linejoin: miter; stroke-linecap: square"/>
   </g>
   <g id="patch_10">
    <path d="M 399.670625 108.35404 
L 542.63952 108.35404 
" style="fill: none; stroke: #262626; stroke-width: 0.8; stroke-linejoin: miter; stroke-linecap: square"/>
   </g>
   <g id="PathCollection_11">
    <g clip-path="url(#p6194735144)">
     <use xlink:href="#m78c4d588a0" x="421.657688" y="38.781331" style="fill: #ffffff; stroke: #eb6834; stroke-width: 0.8"/>
    </g>
   </g>
   <g id="PathCollection_12">
    <g clip-path="url(#p6194735144)">
     <use xlink:href="#m08365e4268" x="415.517288" y="47.159258" style="fill: #eb6834; stroke: #eb6834; stroke-width: 0.8"/>
    </g>
   </g>
   <g id="PathCollection_13">
    <g clip-path="url(#p6194735144)">
     <use xlink:href="#m873580495f" x="532.779596" y="46.487917" style="fill: #1baf7a; stroke: #1baf7a; stroke-width: 0.8"/>
    </g>
   </g>
   <g id="PathCollection_14">
    <g clip-path="url(#p6194735144)">
     <use xlink:href="#m30f8262539" x="454.573749" y="56.903708" style="fill: #4a3aa7; stroke: #4a3aa7; stroke-width: 0.8"/>
    </g>
   </g>
   <g id="PathCollection_15">
    <g clip-path="url(#p6194735144)">
     <use xlink:href="#mdfe978dfb4" x="424.401347" y="35.209236" style="fill: #2a78d6; stroke: #2a78d6; stroke-width: 0.8"/>
    </g>
   </g>
   <g id="PathCollection_16">
    <g clip-path="url(#p6194735144)">
     <use xlink:href="#m39817e0841" x="467.26622" y="39.865859" style="fill: #ffffff; stroke: #2a78d6; stroke-width: 0.8"/>
    </g>
   </g>
  </g>
  <g id="legend_1">
   <g id="line2d_78">
    <path d="M 64.687729 148.173979 
L 70.287729 148.173979 
L 75.887729 148.173979 
" style="fill: none; stroke-dasharray: 6,3; stroke-dashoffset: 0; stroke: #eb6834; stroke-width: 1.5"/>
    <defs>
     <path id="m5e5c9d6953" d="M 0 2.4 
C 0.636487 2.4 1.246992 2.147121 1.697056 1.697056 
C 2.147121 1.246992 2.4 0.636487 2.4 0 
C 2.4 -0.636487 2.147121 -1.246992 1.697056 -1.697056 
C 1.246992 -2.147121 0.636487 -2.4 0 -2.4 
C -0.636487 -2.4 -1.246992 -2.147121 -1.697056 -1.697056 
C -2.147121 -1.246992 -2.4 -0.636487 -2.4 0 
C -2.4 0.636487 -2.147121 1.246992 -1.697056 1.697056 
C -1.246992 2.147121 -0.636487 2.4 0 2.4 
z
" style="stroke: #eb6834"/>
    </defs>
    <g>
     <use xlink:href="#m5e5c9d6953" x="70.287729" y="148.173979" style="fill: #ffffff; stroke: #eb6834"/>
    </g>
   </g>
   <g id="text_34">
    <!-- SIREN -->
    <g style="fill: #262626" transform="translate(79.387729 150.623979) scale(0.07 -0.07)">
     <defs>
      <path id="DejaVuSans-45" d="M 628 4666 
L 3578 4666 
L 3578 4134 
L 1259 4134 
L 1259 2753 
L 3481 2753 
L 3481 2222 
L 1259 2222 
L 1259 531 
L 3634 531 
L 3634 0 
L 628 0 
L 628 4666 
z
" transform="scale(0.015625)"/>
     </defs>
     <use xlink:href="#DejaVuSans-53"/>
     <use xlink:href="#DejaVuSans-49" transform="translate(63.476562 0)"/>
     <use xlink:href="#DejaVuSans-52" transform="translate(92.96875 0)"/>
     <use xlink:href="#DejaVuSans-45" transform="translate(162.451172 0)"/>
     <use xlink:href="#DejaVuSans-4e" transform="translate(225.634766 0)"/>
    </g>
   </g>
   <g id="line2d_79">
    <path d="M 110.220541 148.173979 
L 115.820541 148.173979 
L 121.420541 148.173979 
" style="fill: none; stroke: #eb6834; stroke-width: 1.5; stroke-linecap: round"/>
    <defs>
     <path id="m16779dd79f" d="M 0 2.4 
C 0.636487 2.4 1.246992 2.147121 1.697056 1.697056 
C 2.147121 1.246992 2.4 0.636487 2.4 0 
C 2.4 -0.636487 2.147121 -1.246992 1.697056 -1.697056 
C 1.246992 -2.147121 0.636487 -2.4 0 -2.4 
C -0.636487 -2.4 -1.246992 -2.147121 -1.697056 -1.697056 
C -2.147121 -1.246992 -2.4 -0.636487 -2.4 0 
C -2.4 0.636487 -2.147121 1.246992 -1.697056 1.697056 
C -1.246992 2.147121 -0.636487 2.4 0 2.4 
z
" style="stroke: #eb6834"/>
    </defs>
    <g>
     <use xlink:href="#m16779dd79f" x="115.820541" y="148.173979" style="fill: #eb6834; stroke: #eb6834"/>
    </g>
   </g>
   <g id="text_35">
    <!-- FINER -->
    <g style="fill: #262626" transform="translate(124.920541 150.623979) scale(0.07 -0.07)">
     <defs>
      <path id="DejaVuSans-46" d="M 628 4666 
L 3309 4666 
L 3309 4134 
L 1259 4134 
L 1259 2759 
L 3109 2759 
L 3109 2228 
L 1259 2228 
L 1259 0 
L 628 0 
L 628 4666 
z
" transform="scale(0.015625)"/>
     </defs>
     <use xlink:href="#DejaVuSans-46"/>
     <use xlink:href="#DejaVuSans-49" transform="translate(57.519531 0)"/>
     <use xlink:href="#DejaVuSans-4e" transform="translate(87.011719 0)"/>
     <use xlink:href="#DejaVuSans-45" transform="translate(161.816406 0)"/>
     <use xlink:href="#DejaVuSans-52" transform="translate(225 0)"/>
    </g>
   </g>
   <g id="line2d_80">
    <path d="M 155.335541 148.173979 
L 160.935541 148.173979 
L 166.535541 148.173979 
" style="fill: none; stroke: #1baf7a; stroke-width: 1.5; stroke-linecap: round"/>
    <defs>
     <path id="m91bd530960" d="M 0 2.4 
C 0.636487 2.4 1.246992 2.147121 1.697056 1.697056 
C 2.147121 1.246992 2.4 0.636487 2.4 0 
C 2.4 -0.636487 2.147121 -1.246992 1.697056 -1.697056 
C 1.246992 -2.147121 0.636487 -2.4 0 -2.4 
C -0.636487 -2.4 -1.246992 -2.147121 -1.697056 -1.697056 
C -2.147121 -1.246992 -2.4 -0.636487 -2.4 0 
C -2.4 0.636487 -2.147121 1.246992 -1.697056 1.697056 
C -1.246992 2.147121 -0.636487 2.4 0 2.4 
z
" style="stroke: #1baf7a"/>
    </defs>
    <g>
     <use xlink:href="#m91bd530960" x="160.935541" y="148.173979" style="fill: #1baf7a; stroke: #1baf7a"/>
    </g>
   </g>
   <g id="text_36">
    <!-- Instant-NGP -->
    <g style="fill: #262626" transform="translate(170.035541 150.623979) scale(0.07 -0.07)">
     <defs>
      <path id="DejaVuSans-2d" d="M 313 2009 
L 1997 2009 
L 1997 1497 
L 313 1497 
L 313 2009 
z
" transform="scale(0.015625)"/>
      <path id="DejaVuSans-47" d="M 3809 666 
L 3809 1919 
L 2778 1919 
L 2778 2438 
L 4434 2438 
L 4434 434 
Q 4069 175 3628 42 
Q 3188 -91 2688 -91 
Q 1594 -91 976 548 
Q 359 1188 359 2328 
Q 359 3472 976 4111 
Q 1594 4750 2688 4750 
Q 3144 4750 3555 4637 
Q 3966 4525 4313 4306 
L 4313 3634 
Q 3963 3931 3569 4081 
Q 3175 4231 2741 4231 
Q 1884 4231 1454 3753 
Q 1025 3275 1025 2328 
Q 1025 1384 1454 906 
Q 1884 428 2741 428 
Q 3075 428 3337 486 
Q 3600 544 3809 666 
z
" transform="scale(0.015625)"/>
     </defs>
     <use xlink:href="#DejaVuSans-49"/>
     <use xlink:href="#DejaVuSans-6e" transform="translate(29.492188 0)"/>
     <use xlink:href="#DejaVuSans-73" transform="translate(92.871094 0)"/>
     <use xlink:href="#DejaVuSans-74" transform="translate(144.970703 0)"/>
     <use xlink:href="#DejaVuSans-61" transform="translate(184.179688 0)"/>
     <use xlink:href="#DejaVuSans-6e" transform="translate(245.458984 0)"/>
     <use xlink:href="#DejaVuSans-74" transform="translate(308.837891 0)"/>
     <use xlink:href="#DejaVuSans-2d" transform="translate(348.046875 0)"/>
     <use xlink:href="#DejaVuSans-4e" transform="translate(384.130859 0)"/>
     <use xlink:href="#DejaVuSans-47" transform="translate(458.935547 0)"/>
     <use xlink:href="#DejaVuSans-50" transform="translate(536.425781 0)"/>
    </g>
   </g>
   <g id="line2d_81">
    <path d="M 221.60476 148.173979 
L 227.20476 148.173979 
L 232.80476 148.173979 
" style="fill: none; stroke: #4a3aa7; stroke-width: 1.5; stroke-linecap: round"/>
    <defs>
     <path id="m17b4180ef1" d="M 0 2.4 
C 0.636487 2.4 1.246992 2.147121 1.697056 1.697056 
C 2.147121 1.246992 2.4 0.636487 2.4 0 
C 2.4 -0.636487 2.147121 -1.246992 1.697056 -1.697056 
C 1.246992 -2.147121 0.636487 -2.4 0 -2.4 
C -0.636487 -2.4 -1.246992 -2.147121 -1.697056 -1.697056 
C -2.147121 -1.246992 -2.4 -0.636487 -2.4 0 
C -2.4 0.636487 -2.147121 1.246992 -1.697056 1.697056 
C -1.246992 2.147121 -0.636487 2.4 0 2.4 
z
" style="stroke: #4a3aa7"/>
    </defs>
    <g>
     <use xlink:href="#m17b4180ef1" x="227.20476" y="148.173979" style="fill: #4a3aa7; stroke: #4a3aa7"/>
    </g>
   </g>
   <g id="text_37">
    <!-- TensoRF -->
    <g style="fill: #262626" transform="translate(236.30476 150.623979) scale(0.07 -0.07)">
     <defs>
      <path id="DejaVuSans-6f" d="M 1959 3097 
Q 1497 3097 1228 2736 
Q 959 2375 959 1747 
Q 959 1119 1226 758 
Q 1494 397 1959 397 
Q 2419 397 2687 759 
Q 2956 1122 2956 1747 
Q 2956 2369 2687 2733 
Q 2419 3097 1959 3097 
z
M 1959 3584 
Q 2709 3584 3137 3096 
Q 3566 2609 3566 1747 
Q 3566 888 3137 398 
Q 2709 -91 1959 -91 
Q 1206 -91 779 398 
Q 353 888 353 1747 
Q 353 2609 779 3096 
Q 1206 3584 1959 3584 
z
" transform="scale(0.015625)"/>
     </defs>
     <use xlink:href="#DejaVuSans-54"/>
     <use xlink:href="#DejaVuSans-65" transform="translate(44.083984 0)"/>
     <use xlink:href="#DejaVuSans-6e" transform="translate(105.607422 0)"/>
     <use xlink:href="#DejaVuSans-73" transform="translate(168.986328 0)"/>
     <use xlink:href="#DejaVuSans-6f" transform="translate(221.085938 0)"/>
     <use xlink:href="#DejaVuSans-52" transform="translate(282.267578 0)"/>
     <use xlink:href="#DejaVuSans-46" transform="translate(351.75 0)"/>
    </g>
   </g>
   <g id="line2d_82">
    <path d="M 274.753354 148.173979 
L 280.353354 148.173979 
L 285.953354 148.173979 
" style="fill: none; stroke: #2a78d6; stroke-width: 1.5; stroke-linecap: round"/>
    <defs>
     <path id="m34ae61a654" d="M 0 2.4 
C 0.636487 2.4 1.246992 2.147121 1.697056 1.697056 
C 2.147121 1.246992 2.4 0.636487 2.4 0 
C 2.4 -0.636487 2.147121 -1.246992 1.697056 -1.697056 
C 1.246992 -2.147121 0.636487 -2.4 0 -2.4 
C -0.636487 -2.4 -1.246992 -2.147121 -1.697056 -1.697056 
C -2.147121 -1.246992 -2.4 -0.636487 -2.4 0 
C -2.4 0.636487 -2.147121 1.246992 -1.697056 1.697056 
C -1.246992 2.147121 -0.636487 2.4 0 2.4 
z
" style="stroke: #2a78d6"/>
    </defs>
    <g>
     <use xlink:href="#m34ae61a654" x="280.353354" y="148.173979" style="fill: #2a78d6; stroke: #2a78d6"/>
    </g>
   </g>
   <g id="text_38">
    <!-- FUTON-sinc -->
    <g style="fill: #262626" transform="translate(289.453354 150.623979) scale(0.07 -0.07)">
     <defs>
      <path id="DejaVuSans-55" d="M 556 4666 
L 1191 4666 
L 1191 1831 
Q 1191 1081 1462 751 
Q 1734 422 2344 422 
Q 2950 422 3222 751 
Q 3494 1081 3494 1831 
L 3494 4666 
L 4128 4666 
L 4128 1753 
Q 4128 841 3676 375 
Q 3225 -91 2344 -91 
Q 1459 -91 1007 375 
Q 556 841 556 1753 
L 556 4666 
z
" transform="scale(0.015625)"/>
      <path id="DejaVuSans-4f" d="M 2522 4238 
Q 1834 4238 1429 3725 
Q 1025 3213 1025 2328 
Q 1025 1447 1429 934 
Q 1834 422 2522 422 
Q 3209 422 3611 934 
Q 4013 1447 4013 2328 
Q 4013 3213 3611 3725 
Q 3209 4238 2522 4238 
z
M 2522 4750 
Q 3503 4750 4090 4092 
Q 4678 3434 4678 2328 
Q 4678 1225 4090 567 
Q 3503 -91 2522 -91 
Q 1538 -91 948 565 
Q 359 1222 359 2328 
Q 359 3434 948 4092 
Q 1538 4750 2522 4750 
z
" transform="scale(0.015625)"/>
     </defs>
     <use xlink:href="#DejaVuSans-46"/>
     <use xlink:href="#DejaVuSans-55" transform="translate(57.519531 0)"/>
     <use xlink:href="#DejaVuSans-54" transform="translate(130.712891 0)"/>
     <use xlink:href="#DejaVuSans-4f" transform="translate(191.796875 0)"/>
     <use xlink:href="#DejaVuSans-4e" transform="translate(270.507812 0)"/>
     <use xlink:href="#DejaVuSans-2d" transform="translate(345.3125 0)"/>
     <use xlink:href="#DejaVuSans-73" transform="translate(381.396484 0)"/>
     <use xlink:href="#DejaVuSans-69" transform="translate(433.496094 0)"/>
     <use xlink:href="#DejaVuSans-6e" transform="translate(461.279297 0)"/>
     <use xlink:href="#DejaVuSans-63" transform="translate(524.658203 0)"/>
    </g>
   </g>
   <g id="line2d_83">
    <path d="M 339.827104 148.173979 
L 345.427104 148.173979 
L 351.027104 148.173979 
" style="fill: none; stroke-dasharray: 6,3; stroke-dashoffset: 0; stroke: #2a78d6; stroke-width: 1.5"/>
    <defs>
     <path id="ma317ae5831" d="M 0 2.4 
C 0.636487 2.4 1.246992 2.147121 1.697056 1.697056 
C 2.147121 1.246992 2.4 0.636487 2.4 0 
C 2.4 -0.636487 2.147121 -1.246992 1.697056 -1.697056 
C 1.246992 -2.147121 0.636487 -2.4 0 -2.4 
C -0.636487 -2.4 -1.246992 -2.147121 -1.697056 -1.697056 
C -2.147121 -1.246992 -2.4 -0.636487 -2.4 0 
C -2.4 0.636487 -2.147121 1.246992 -1.697056 1.697056 
C -1.246992 2.147121 -0.636487 2.4 0 2.4 
z
" style="stroke: #2a78d6"/>
    </defs>
    <g>
     <use xlink:href="#ma317ae5831" x="345.427104" y="148.173979" style="fill: #ffffff; stroke: #2a78d6"/>
    </g>
   </g>
   <g id="text_39">
    <!-- FUTON-lanczos -->
    <g style="fill: #262626" transform="translate(354.527104 150.623979) scale(0.07 -0.07)">
     <defs>
      <path id="DejaVuSans-6c" d="M 603 4863 
L 1178 4863 
L 1178 0 
L 603 0 
L 603 4863 
z
" transform="scale(0.015625)"/>
      <path id="DejaVuSans-7a" d="M 353 3500 
L 3084 3500 
L 3084 2975 
L 922 459 
L 3084 459 
L 3084 0 
L 275 0 
L 275 525 
L 2438 3041 
L 353 3041 
L 353 3500 
z
" transform="scale(0.015625)"/>
     </defs>
     <use xlink:href="#DejaVuSans-46"/>
     <use xlink:href="#DejaVuSans-55" transform="translate(57.519531 0)"/>
     <use xlink:href="#DejaVuSans-54" transform="translate(130.712891 0)"/>
     <use xlink:href="#DejaVuSans-4f" transform="translate(191.796875 0)"/>
     <use xlink:href="#DejaVuSans-4e" transform="translate(270.507812 0)"/>
     <use xlink:href="#DejaVuSans-2d" transform="translate(345.3125 0)"/>
     <use xlink:href="#DejaVuSans-6c" transform="translate(381.396484 0)"/>
     <use xlink:href="#DejaVuSans-61" transform="translate(409.179688 0)"/>
     <use xlink:href="#DejaVuSans-6e" transform="translate(470.458984 0)"/>
     <use xlink:href="#DejaVuSans-63" transform="translate(533.837891 0)"/>
     <use xlink:href="#DejaVuSans-7a" transform="translate(588.818359 0)"/>
     <use xlink:href="#DejaVuSans-6f" transform="translate(641.308594 0)"/>
     <use xlink:href="#DejaVuSans-73" transform="translate(702.490234 0)"/>
    </g>
   </g>
   <g id="line2d_84">
    <defs>
     <path id="m287a029822" d="M 0 2.4 
C 0.636487 2.4 1.246992 2.147121 1.697056 1.697056 
C 2.147121 1.246992 2.4 0.636487 2.4 0 
C 2.4 -0.636487 2.147121 -1.246992 1.697056 -1.697056 
C 1.246992 -2.147121 0.636487 -2.4 0 -2.4 
C -0.636487 -2.4 -1.246992 -2.147121 -1.697056 -1.697056 
C -2.147121 -1.246992 -2.4 -0.636487 -2.4 0 
C -2.4 0.636487 -2.147121 1.246992 -1.697056 1.697056 
C -1.246992 2.147121 -0.636487 2.4 0 2.4 
z
" style="stroke: #b2b2b2"/>
    </defs>
    <g>
     <use xlink:href="#m287a029822" x="422.747572" y="148.173979" style="fill: #b2b2b2; stroke: #b2b2b2"/>
    </g>
   </g>
   <g id="text_40">
    <!-- Other models -->
    <g style="fill: #262626" transform="translate(431.847572 150.623979) scale(0.07 -0.07)">
     <defs>
      <path id="DejaVuSans-68" d="M 3513 2113 
L 3513 0 
L 2938 0 
L 2938 2094 
Q 2938 2591 2744 2837 
Q 2550 3084 2163 3084 
Q 1697 3084 1428 2787 
Q 1159 2491 1159 1978 
L 1159 0 
L 581 0 
L 581 4863 
L 1159 4863 
L 1159 2956 
Q 1366 3272 1645 3428 
Q 1925 3584 2291 3584 
Q 2894 3584 3203 3211 
Q 3513 2838 3513 2113 
z
" transform="scale(0.015625)"/>
     </defs>
     <use xlink:href="#DejaVuSans-4f"/>
     <use xlink:href="#DejaVuSans-74" transform="translate(78.710938 0)"/>
     <use xlink:href="#DejaVuSans-68" transform="translate(117.919922 0)"/>
     <use xlink:href="#DejaVuSans-65" transform="translate(181.298828 0)"/>
     <use xlink:href="#DejaVuSans-72" transform="translate(242.822266 0)"/>
     <use xlink:href="#DejaVuSans-20" transform="translate(283.935547 0)"/>
     <use xlink:href="#DejaVuSans-6d" transform="translate(315.722656 0)"/>
     <use xlink:href="#DejaVuSans-6f" transform="translate(413.134766 0)"/>
     <use xlink:href="#DejaVuSans-64" transform="translate(474.316406 0)"/>
     <use xlink:href="#DejaVuSans-65" transform="translate(537.792969 0)"/>
     <use xlink:href="#DejaVuSans-6c" transform="translate(599.316406 0)"/>
     <use xlink:href="#DejaVuSans-73" transform="translate(627.099609 0)"/>
    </g>
   </g>
  </g>
 </g>
 <defs>
  <clipPath id="pb88153cd18">
   <rect x="34.870625" y="4.859297" width="142.968895" height="103.494743"/>
  </clipPath>
  <clipPath id="pd2e9cf5139">
   <rect x="217.270625" y="4.859297" width="142.968895" height="103.494743"/>
  </clipPath>
  <clipPath id="p6194735144">
   <rect x="399.670625" y="4.859297" width="142.968895" height="103.494743"/>
  </clipPath>
 </defs>
</svg>
